<svg version="1.1" id="Layer_1" xmlns="http://www.w3.org/2000/svg" xmlns:xlink="http://www.w3.org/1999/xlink" x="0px" y="0px"
	 width="100%" viewBox="0 0 750 273" enable-background="new 0 0 750 273" xml:space="preserve">
<path fill="#FEFEFE" opacity="1.000000" stroke="none" 
	d="
M473.000000,274.000000 
	C315.371704,274.000000 158.243423,274.000000 1.057570,274.000000 
	C1.057570,183.060638 1.057570,92.121223 1.057570,1.090904 
	C250.878326,1.090904 500.756714,1.090904 750.817505,1.090904 
	C750.817505,91.999710 750.817505,182.999817 750.817505,274.000000 
	C658.454529,274.000000 565.977234,274.000000 473.000000,274.000000 
M86.009277,105.540176 
	C85.634949,106.797943 85.260620,108.055710 84.297859,108.961197 
	C72.402779,94.633492 57.453087,99.657661 48.482674,109.079460 
	C44.359077,113.410568 40.115723,117.636772 35.770771,121.745689 
	C30.395639,126.828819 24.858541,131.740677 19.409588,136.709976 
	C26.002613,144.037720 31.474709,150.044357 36.863598,156.124725 
	C48.063793,168.762100 62.542393,175.200684 82.005409,166.645660 
	C82.681046,168.099274 83.356674,169.552887 83.931999,171.755554 
	C78.178627,185.149124 80.089233,197.539352 89.393494,208.564804 
	C96.251854,216.691925 103.635902,224.375412 110.712097,232.175415 
	C120.957703,222.570160 129.579254,214.535217 138.146133,206.442398 
	C146.476364,198.573074 153.410797,190.104660 150.142426,177.142197 
	C150.133713,176.967911 150.125015,176.793610 150.116333,176.619324 
	C149.975235,176.839157 149.834137,177.058990 149.025345,177.152054 
	C148.501526,176.159348 147.977707,175.166641 148.173676,173.929718 
	C149.363907,172.248169 153.745361,175.479065 153.762253,170.958740 
	C161.528778,174.592392 169.187073,173.610687 175.297440,168.191406 
	C186.438980,158.309937 196.888351,147.648056 207.549408,137.385956 
	C204.338104,133.750732 201.961212,130.729019 199.245102,128.051392 
	C192.741104,121.639557 186.529068,114.810463 179.362518,109.222878 
	C170.676254,102.450417 160.660614,101.917404 150.629715,106.692741 
	C146.529358,108.644775 142.606323,110.969315 137.311737,113.819237 
	C139.438370,110.919609 140.770096,109.304626 141.884811,107.551643 
	C149.708511,95.248238 150.715607,82.044884 141.948029,70.611366 
	C134.481293,60.874237 124.262764,53.247272 115.291740,44.715405 
	C109.056313,50.255978 102.063866,55.939663 95.720978,62.273800 
	C90.700050,67.287804 86.011345,72.783157 82.019356,78.640167 
	C77.320633,85.534096 78.417397,92.872337 82.711006,99.783478 
	C83.761482,101.474350 84.936127,103.088081 86.009277,105.540176 
M549.623962,125.128510 
	C564.660217,109.962029 567.658936,87.750641 557.043274,70.173660 
	C546.078918,52.019333 525.011963,44.090405 504.729156,50.484310 
	C485.577820,56.521519 472.642090,75.264511 474.168701,95.835777 
	C475.519836,114.042564 484.852173,127.274521 501.795990,134.128494 
	C519.064941,141.113953 535.056030,138.016891 549.623962,125.128510 
M365.756592,55.693783 
	C337.977264,37.196953 306.248749,52.032932 303.996613,85.062355 
	C302.899872,101.146782 303.521881,117.348839 303.398132,133.497894 
	C303.392181,134.274887 303.698944,135.054276 303.873657,135.898071 
	C307.510498,135.898071 310.939606,135.898071 314.860626,135.898071 
	C314.860626,123.850075 314.743500,112.065186 314.907043,100.284195 
	C314.996826,93.816528 315.050629,87.278389 316.014709,80.907318 
	C318.054077,67.430176 327.152283,59.664642 340.546204,59.190582 
	C354.221710,58.706562 364.021851,66.020348 366.928619,79.337708 
	C367.840607,83.516037 368.040985,87.908531 368.081207,92.207550 
	C368.216431,106.653976 368.132629,121.102455 368.132629,135.856476 
	C372.207123,135.856476 375.761078,135.856476 379.207489,135.856476 
	C379.207489,118.033829 379.622040,100.427788 379.050964,82.853783 
	C378.712158,72.427505 374.689117,63.081379 365.756592,55.693783 
M232.860245,70.500183 
	C232.860245,63.724499 232.860245,56.948811 232.860245,50.086376 
	C228.774216,50.086376 225.344635,50.086376 221.793472,50.086376 
	C221.641800,50.974308 221.433350,51.611752 221.438858,52.247345 
	C221.584518,69.070381 221.270615,85.915306 222.040176,102.710442 
	C222.967957,122.958588 235.641022,135.585236 255.707382,137.529800 
	C276.848297,139.578491 293.301849,128.815475 295.992188,107.771614 
	C298.381653,89.081345 297.084778,69.919540 297.387299,50.965427 
	C297.391418,50.706371 297.032074,50.441517 296.826782,50.157845 
	C293.417358,50.157845 290.002319,50.157845 286.139221,50.157845 
	C286.139221,52.107647 286.143890,53.739067 286.138489,55.370449 
	C286.088318,70.533897 286.447998,85.713043 285.870209,100.856400 
	C285.281036,116.298386 275.483765,125.991295 260.862122,126.825325 
	C246.654633,127.635742 236.018707,119.547699 233.922241,104.399719 
	C232.426346,93.591232 233.135178,82.477600 232.860245,70.500183 
M426.298279,50.659763 
	C416.781677,54.526684 411.071899,61.135109 411.139465,71.842690 
	C411.202911,81.898224 415.992462,88.259102 426.848907,92.499809 
	C429.780029,93.644745 432.920807,94.242149 435.892120,95.297180 
	C441.653809,97.342979 447.880798,98.698456 452.980591,101.851357 
	C461.929199,107.383789 460.669312,120.490074 451.140808,125.025269 
	C444.015930,128.416428 436.626190,128.286926 429.404297,125.195206 
	C424.915314,123.273430 421.760986,120.097923 420.680756,115.020569 
	C420.441254,113.894829 418.818024,112.451942 417.650635,112.260452 
	C415.094849,111.841202 412.422791,112.130638 409.515778,112.130638 
	C409.495270,121.036285 413.227173,127.357849 419.957642,131.869705 
	C429.922028,138.549484 440.893799,138.976074 452.068451,135.922546 
	C463.616943,132.766876 469.852325,124.889427 470.249847,113.767464 
	C470.658783,102.327332 464.904388,94.197540 453.407013,90.107086 
	C450.910187,89.218781 448.305908,88.636818 445.787933,87.802704 
	C440.124695,85.926704 434.167908,84.602715 428.906677,81.923012 
	C420.287781,77.533112 420.331116,66.369148 428.545593,61.247570 
	C439.373077,54.496838 452.588593,59.359188 456.906036,71.779228 
	C460.140259,71.779228 463.410736,71.779228 466.954926,71.779228 
	C467.405914,64.532906 464.740814,58.881409 459.288788,54.702198 
	C449.424072,47.140545 438.405426,47.059246 426.298279,50.659763 
M581.169556,123.491493 
	C581.409973,109.855949 580.966675,96.164612 582.073486,82.599762 
	C583.304321,67.515656 593.766357,58.919300 608.557251,59.169647 
	C622.902405,59.412445 632.997620,68.404419 633.914429,83.356216 
	C634.870728,98.951408 634.582092,114.623093 634.828796,130.261459 
	C634.858948,132.172318 634.832947,134.084076 634.832947,135.936584 
	C638.948669,135.936584 642.229553,135.936584 645.255493,135.936584 
	C645.255493,117.428711 645.547119,99.170624 645.115784,80.929634 
	C644.936646,73.354988 641.913757,66.294395 636.839417,60.466640 
	C626.040833,48.064732 611.957275,46.465672 597.108276,49.681248 
	C580.500244,53.277752 570.399475,67.115952 570.050659,85.806702 
	C569.758728,101.454048 569.875305,117.109207 569.850037,132.760956 
	C569.848328,133.853241 570.170776,134.946060 570.305359,135.802704 
	C574.072815,135.802704 577.484375,135.802704 581.169617,135.802704 
	C581.169617,131.779144 581.169617,128.132843 581.169556,123.491493 
M399.603333,134.076431 
	C399.603333,106.181084 399.603333,78.285728 399.603333,50.190994 
	C395.564514,50.190994 392.034393,50.190994 388.379395,50.190994 
	C388.379395,78.906631 388.379395,107.262299 388.379395,136.629562 
	C392.302582,136.045517 395.880890,135.512817 399.603333,134.076431 
M579.701721,188.515656 
	C583.768494,186.388733 586.103638,182.999695 585.652039,178.450211 
	C585.179077,173.686172 581.858948,170.769882 577.557434,169.208252 
	C574.770752,168.196564 571.747192,167.855743 568.904114,166.974457 
	C566.883545,166.348145 564.674133,165.697464 563.104797,164.390335 
	C560.419250,162.153442 560.433777,158.225830 563.408081,157.459381 
	C567.879272,156.307175 573.370056,155.897110 577.461609,157.554871 
	C580.459351,158.769440 582.165283,159.383438 584.640015,157.613297 
	C580.147034,148.883713 563.631042,147.215500 557.667114,154.825760 
	C554.070190,159.415649 555.001587,165.869492 560.057861,169.129242 
	C562.229126,170.529007 564.855774,171.285446 567.351318,172.102859 
	C570.340942,173.082123 573.580933,173.459244 576.379944,174.794388 
	C577.913025,175.525681 579.467468,177.597305 579.693237,179.245255 
	C579.873535,180.561478 578.373718,182.582611 577.067993,183.532562 
	C573.989136,185.772446 565.420593,184.989166 562.254944,183.084732 
	C560.447998,181.997681 558.084534,181.835510 555.392395,181.098251 
	C556.559204,189.942703 568.496643,191.739243 579.701721,188.515656 
M623.034058,172.401398 
	C623.034058,165.286484 623.034058,158.171555 623.034058,150.643585 
	C620.747375,150.833176 619.044006,150.974411 617.137573,151.132477 
	C617.137573,160.770035 616.987305,169.927841 617.191528,179.077728 
	C617.322754,184.954758 621.554932,189.045105 627.672302,189.869904 
	C637.520508,191.197739 644.581482,188.475708 646.597656,182.571625 
	C646.705078,182.257050 646.867065,181.933563 646.867493,181.614044 
	C646.881775,171.365082 646.879211,161.116119 646.879211,150.577881 
	C644.696472,150.828964 643.131226,151.009018 641.726318,151.170624 
	C641.540955,151.971085 641.402222,152.292892 641.401184,152.615112 
	C641.375916,160.614624 641.387634,168.614334 641.344604,176.613724 
	C641.312195,182.637085 639.676819,184.358398 633.823303,184.685303 
	C624.594788,185.200699 623.025452,183.553940 623.034058,172.401398 
M321.282074,184.657181 
	C316.938080,183.582001 315.737366,180.606262 315.822510,176.422745 
	C315.993988,167.997284 315.873535,159.565872 315.873535,150.733780 
	C313.580139,150.899704 312.023560,151.012314 310.115051,151.150391 
	C310.115051,160.882431 309.921448,170.184494 310.185059,179.473587 
	C310.352814,185.386078 315.053497,189.418228 321.526642,189.963867 
	C331.471527,190.802170 338.019196,188.021744 339.711700,182.237167 
	C339.804657,181.919464 339.912354,181.588654 339.912689,181.263824 
	C339.923309,171.167267 339.921387,161.070709 339.921387,150.629196 
	C337.816833,150.816345 336.231689,150.957321 334.410797,151.119247 
	C334.410797,159.953690 334.459503,168.429657 334.393951,176.904724 
	C334.349030,182.718399 332.468109,184.569305 326.594757,184.817078 
	C325.100006,184.880112 323.599518,184.806976 321.282074,184.657181 
M500.670471,156.007614 
	C503.596558,156.007614 506.522675,156.007614 509.849792,156.007614 
	C509.849792,167.452866 509.849792,178.209503 509.849792,189.230240 
	C511.810730,189.230240 513.335571,189.230240 515.259949,189.230240 
	C515.259949,178.095184 515.259949,167.330368 515.259949,156.009445 
	C519.364563,156.009445 523.094055,156.009445 527.135132,156.009445 
	C527.013550,154.019653 526.927856,152.616821 526.835449,151.105011 
	C517.083496,151.105011 507.682983,151.105011 496.948853,151.105011 
	C498.135193,153.189743 498.932617,154.591034 500.670471,156.007614 
M232.807098,188.487244 
	C234.221130,186.526016 236.778992,184.609421 236.857544,182.596069 
	C237.268036,172.073990 237.049164,161.527359 237.049164,150.957489 
	C235.261475,150.957489 233.669006,150.957489 231.692398,150.957489 
	C231.692398,159.003311 231.699707,166.784912 231.690552,174.566498 
	C231.679398,184.035095 231.523529,184.213837 222.240189,185.587036 
	C222.240189,187.112106 222.240189,188.670578 222.240189,191.174438 
	C225.841522,190.331360 228.985931,189.595245 232.807098,188.487244 
M428.579865,178.989594 
	C428.579865,169.741730 428.579865,160.493866 428.579865,151.151306 
	C426.407043,151.151306 424.858582,151.151306 422.988251,151.151306 
	C422.988251,159.092957 422.988037,166.708710 422.988312,174.324448 
	C422.988678,183.961182 422.816437,184.164886 413.316132,185.630173 
	C413.316132,187.169800 413.316132,188.715118 413.316132,190.229004 
	C422.771606,190.992157 427.187775,187.918549 428.579865,178.989594 
M493.745880,218.454849 
	C494.424957,218.425491 495.408905,218.093124 495.731628,218.417877 
	C497.342224,220.038666 498.779114,221.832016 500.402985,223.710220 
	C502.584106,221.725388 504.450134,220.027313 506.316193,218.329224 
	C506.755676,218.453690 507.195160,218.578171 507.634644,218.702652 
	C507.634644,221.254547 507.362976,223.845276 507.720490,226.346069 
	C508.006897,228.349213 505.857880,232.041473 510.735901,231.884506 
	C510.735901,224.648438 510.735901,217.602676 510.735901,210.556915 
	C510.351959,210.255997 509.968048,209.955078 509.584106,209.654160 
	C506.553558,212.535736 503.523010,215.417328 500.649231,218.149841 
	C496.679016,216.124283 496.205505,209.847443 490.098389,210.628235 
	C490.098389,217.020737 490.022064,222.984451 490.171204,228.942551 
	C490.196991,229.972458 491.178802,230.978455 491.719086,231.995499 
	C492.369446,230.911331 493.486816,229.865997 493.580811,228.735565 
	C493.841339,225.601288 493.675659,222.431580 493.745880,218.454849 
M462.092346,173.497650 
	C462.092346,178.741501 462.092346,183.985336 462.092346,189.354889 
	C464.327728,189.354889 465.884491,189.354889 467.612885,189.354889 
	C467.612885,176.348282 467.612885,163.683395 467.612885,150.929565 
	C465.724426,150.929565 464.150146,150.929565 462.092407,150.929565 
	C462.092407,158.319031 462.092407,165.408737 462.092346,173.497650 
M274.373474,189.646881 
	C275.211395,188.709702 276.765137,187.782608 276.778534,186.833832 
	C276.944855,175.034988 276.887268,163.233002 276.887268,151.011887 
	C274.891357,150.892807 273.159851,150.789505 270.975311,150.659164 
	C270.975311,163.059052 270.919708,174.999146 271.085236,186.936142 
	C271.097870,187.850540 272.672455,188.743256 274.373474,189.646881 
M469.529785,219.834534 
	C466.799622,219.490005 464.069489,219.145477 461.257751,218.790665 
	C461.257751,217.141617 461.257751,215.730453 461.257751,213.707245 
	C464.638550,213.707245 467.759125,213.803864 470.865417,213.636063 
	C471.597961,213.596497 472.282410,212.666351 472.988983,212.145889 
	C472.390991,211.526398 471.810181,210.390457 471.192230,210.369858 
	C466.624512,210.217545 462.049408,210.287399 457.666748,210.287399 
	C457.666748,218.076294 457.666748,224.960999 457.666748,232.069183 
	C462.426636,232.069183 466.746460,232.134811 471.060516,232.007172 
	C471.815186,231.984833 472.545776,231.150024 473.287506,230.690445 
	C472.512756,230.101746 471.765625,229.053528 470.958405,229.005035 
	C467.712708,228.810074 464.448425,228.924347 461.216156,228.924347 
	C461.216156,226.549164 461.216156,224.938171 461.216156,222.769257 
	C463.251404,222.769257 465.087891,223.032120 466.795349,222.676117 
	C467.918884,222.441864 468.856476,221.315598 469.529785,219.834534 
M422.973541,224.436279 
	C422.973541,226.860855 422.973541,229.285416 422.973541,232.259827 
	C428.661194,231.084625 435.578094,234.865250 438.030365,228.660400 
	C439.836884,224.089569 439.719910,217.272354 437.504669,212.981995 
	C434.855957,207.852127 428.281982,210.926376 422.972443,210.411530 
	C422.972443,215.176437 422.972443,219.318344 422.973541,224.436279 
M323.922089,226.298660 
	C323.356598,228.082993 322.791107,229.867325 322.062317,232.166977 
	C326.790253,232.419373 326.820374,224.974899 331.574371,227.237137 
	C334.497620,228.628189 337.206329,230.469955 341.113739,232.753601 
	C338.403687,225.124390 336.249146,218.860703 333.909668,212.666901 
	C333.516541,211.626022 332.323517,210.887268 331.500061,210.008942 
	C330.561310,210.962219 329.225494,211.752426 328.755035,212.898041 
	C327.050842,217.047729 325.637115,221.316696 323.922089,226.298660 
M393.315308,227.534210 
	C398.782349,224.774734 401.839325,229.790695 405.961670,231.910522 
	C404.064209,224.774704 401.812073,218.225677 399.415009,211.730133 
	C399.146362,211.002167 397.982635,210.050430 397.365265,210.137177 
	C396.474335,210.262360 395.260620,211.074234 394.951599,211.885300 
	C392.490967,218.344009 390.211700,224.871826 387.876801,231.378433 
	C388.396271,231.730423 388.915741,232.082413 389.435211,232.434402 
	C390.545807,231.007050 391.656372,229.579712 393.315308,227.534210 
M359.918701,224.234818 
	C359.919189,222.902420 359.917053,221.570038 359.920563,220.237640 
	C359.939301,213.139969 362.344391,211.734634 369.222198,214.625641 
	C370.162292,215.020813 371.411743,214.680099 372.995544,214.680099 
	C370.101685,208.862366 365.427612,209.732849 361.335754,210.387573 
	C357.162964,211.055222 356.145752,214.532410 356.312317,218.406052 
	C356.405243,220.567108 356.336182,222.735641 356.321838,224.900696 
	C356.296875,228.666946 357.695465,231.298279 361.712738,232.084579 
	C367.210083,233.160599 370.420868,232.020035 372.507935,228.024261 
	C372.114960,227.762939 371.653870,227.214432 371.326813,227.285233 
	C370.425903,227.480270 369.566193,227.902054 368.716675,228.291870 
	C364.274872,230.330093 361.118530,229.209000 359.918701,224.234818 
M538.345581,229.259537 
	C536.403748,221.535217 542.280029,216.788849 545.963989,210.634689 
	C539.693726,209.712845 539.913025,216.007416 536.592163,217.669556 
	C533.127869,216.098328 533.515259,209.612213 527.037476,210.647705 
	C531.305664,216.986481 536.901001,222.385559 535.092834,230.551163 
	C535.018066,230.888702 536.362610,231.984894 536.596619,231.863251 
	C537.303833,231.495651 537.789490,230.701782 538.345581,229.259537 
z"/>
<path fill="#6E6E6E" opacity="1.000000" stroke="none" 
	d="
M149.847168,177.422943 
	C153.410797,190.104660 146.476364,198.573074 138.146133,206.442398 
	C129.579254,214.535217 120.957703,222.570160 110.712097,232.175415 
	C103.635902,224.375412 96.251854,216.691925 89.393494,208.564804 
	C80.089233,197.539352 78.178627,185.149124 84.242615,171.167664 
	C89.203438,164.754883 93.853645,158.929977 98.503845,153.105087 
	C98.315216,153.030792 98.126579,152.956512 97.937950,152.882217 
	C92.628586,157.195953 87.319221,161.509689 82.009857,165.823410 
	C62.542393,175.200684 48.063793,168.762100 36.863598,156.124725 
	C31.474709,150.044357 26.002613,144.037720 19.409588,136.709976 
	C24.858541,131.740677 30.395639,126.828819 35.770771,121.745689 
	C40.115723,117.636772 44.359077,113.410568 48.482674,109.079460 
	C57.453087,99.657661 72.402779,94.633492 84.724396,109.432533 
	C87.430222,112.479820 89.709511,115.055763 92.614830,118.339211 
	C83.807564,126.726944 75.199257,134.925186 66.644272,143.072662 
	C69.852020,144.698807 73.144859,143.490494 75.943626,140.820938 
	C81.609047,135.417053 87.251305,129.975037 92.627869,124.288490 
	C95.020996,121.757393 96.832680,121.651443 99.199669,124.013069 
	C106.152901,130.950516 113.551773,137.485840 120.061172,144.813736 
	C131.458908,157.644638 132.586975,153.722366 118.451195,166.598816 
	C114.375603,170.311325 111.002029,174.915176 107.905830,179.513824 
	C106.883736,181.031906 107.744781,183.817871 107.744781,186.024094 
	C108.215134,186.106201 108.685486,186.188293 109.155838,186.270386 
	C112.616119,173.243118 125.159676,168.714188 133.666382,158.520508 
	C138.573593,164.091827 143.013733,169.132874 147.453888,174.173935 
	C147.977707,175.166641 148.501526,176.159348 149.423920,177.223465 
	C149.822495,177.294876 149.847168,177.422943 149.847168,177.422943 
z"/>
<path fill="#6E6E6E" opacity="1.000000" stroke="none" 
	d="
M86.053680,104.737282 
	C84.936127,103.088081 83.761482,101.474350 82.711006,99.783478 
	C78.417397,92.872337 77.320633,85.534096 82.019356,78.640167 
	C86.011345,72.783157 90.700050,67.287804 95.720978,62.273800 
	C102.063866,55.939663 109.056313,50.255978 115.291740,44.715405 
	C124.262764,53.247272 134.481293,60.874237 141.948029,70.611366 
	C150.715607,82.044884 149.708511,95.248238 141.884811,107.551643 
	C140.770096,109.304626 139.438370,110.919609 137.311737,113.819237 
	C142.606323,110.969315 146.529358,108.644775 150.629715,106.692741 
	C160.660614,101.917404 170.676254,102.450417 179.362518,109.222878 
	C186.529068,114.810463 192.741104,121.639557 199.245102,128.051392 
	C201.961212,130.729019 204.338104,133.750732 207.549408,137.385956 
	C196.888351,147.648056 186.438980,158.309937 175.297440,168.191406 
	C169.187073,173.610687 161.528778,174.592392 153.183899,170.618103 
	C148.341797,166.344482 144.096054,162.391724 139.807602,158.485901 
	C137.231094,156.139282 137.568832,154.154587 140.052048,151.856491 
	C147.608932,144.862946 155.029785,137.722397 162.420944,130.717422 
	C158.806351,128.646027 155.139343,130.778793 152.213623,133.346329 
	C147.234741,137.715652 142.729858,142.634628 138.126419,147.419464 
	C133.888367,151.824493 133.297852,151.883621 129.099442,147.668503 
	C120.648346,139.183792 112.321861,130.566620 103.638153,122.326378 
	C100.523430,119.370720 100.049034,117.062668 103.035545,114.054901 
	C104.904335,112.172813 106.690186,110.205917 108.602509,108.370049 
	C111.837479,105.264412 115.405869,102.462280 118.344193,99.103928 
	C121.205528,95.833557 123.022888,91.949585 120.770752,87.196678 
	C118.610626,90.715935 117.000572,94.188713 114.611794,96.999710 
	C112.053474,100.010208 108.818558,102.464592 105.774849,105.038612 
	C102.513649,107.796562 99.092857,112.547768 95.812386,112.488937 
	C92.514198,112.429764 89.302994,107.520935 86.053680,104.737282 
z"/>
<path fill="#707070" opacity="1.000000" stroke="none" 
	d="
M549.366394,125.374596 
	C535.056030,138.016891 519.064941,141.113953 501.795990,134.128494 
	C484.852173,127.274521 475.519836,114.042564 474.168701,95.835777 
	C472.642090,75.264511 485.577820,56.521519 504.729156,50.484310 
	C525.011963,44.090405 546.078918,52.019333 557.043274,70.173660 
	C567.658936,87.750641 564.660217,109.962029 549.366394,125.374596 
M515.145142,126.495369 
	C518.600952,126.332520 522.126038,126.552460 525.500793,125.941856 
	C541.806274,122.991699 553.279053,107.210030 551.861267,89.989334 
	C550.461853,72.993179 536.768433,59.642464 520.234497,59.154266 
	C501.456696,58.599808 486.781830,71.678787 485.486237,91.456726 
	C484.346252,108.859489 496.585846,123.939545 515.145142,126.495369 
z"/>
<path fill="#727272" opacity="1.000000" stroke="none" 
	d="
M366.031250,55.925835 
	C374.689117,63.081379 378.712158,72.427505 379.050964,82.853783 
	C379.622040,100.427788 379.207489,118.033829 379.207489,135.856476 
	C375.761078,135.856476 372.207123,135.856476 368.132629,135.856476 
	C368.132629,121.102455 368.216431,106.653976 368.081207,92.207550 
	C368.040985,87.908531 367.840607,83.516037 366.928619,79.337708 
	C364.021851,66.020348 354.221710,58.706562 340.546204,59.190582 
	C327.152283,59.664642 318.054077,67.430176 316.014709,80.907318 
	C315.050629,87.278389 314.996826,93.816528 314.907043,100.284195 
	C314.743500,112.065186 314.860626,123.850075 314.860626,135.898071 
	C310.939606,135.898071 307.510498,135.898071 303.873657,135.898071 
	C303.698944,135.054276 303.392181,134.274887 303.398132,133.497894 
	C303.521881,117.348839 302.899872,101.146782 303.996613,85.062355 
	C306.248749,52.032932 337.977264,37.196953 366.031250,55.925835 
z"/>
<path fill="#717171" opacity="1.000000" stroke="none" 
	d="
M232.860214,71.000160 
	C233.135178,82.477600 232.426346,93.591232 233.922241,104.399719 
	C236.018707,119.547699 246.654633,127.635742 260.862122,126.825325 
	C275.483765,125.991295 285.281036,116.298386 285.870209,100.856400 
	C286.447998,85.713043 286.088318,70.533897 286.138489,55.370449 
	C286.143890,53.739067 286.139221,52.107647 286.139221,50.157845 
	C290.002319,50.157845 293.417358,50.157845 296.826782,50.157845 
	C297.032074,50.441517 297.391418,50.706371 297.387299,50.965427 
	C297.084778,69.919540 298.381653,89.081345 295.992188,107.771614 
	C293.301849,128.815475 276.848297,139.578491 255.707382,137.529800 
	C235.641022,135.585236 222.967957,122.958588 222.040176,102.710442 
	C221.270615,85.915306 221.584518,69.070381 221.438858,52.247345 
	C221.433350,51.611752 221.641800,50.974308 221.793472,50.086376 
	C225.344635,50.086376 228.774216,50.086376 232.860245,50.086376 
	C232.860245,56.948811 232.860245,63.724499 232.860214,71.000160 
z"/>
<path fill="#717171" opacity="1.000000" stroke="none" 
	d="
M426.648529,50.483994 
	C438.405426,47.059246 449.424072,47.140545 459.288788,54.702198 
	C464.740814,58.881409 467.405914,64.532906 466.954926,71.779228 
	C463.410736,71.779228 460.140259,71.779228 456.906036,71.779228 
	C452.588593,59.359188 439.373077,54.496838 428.545593,61.247570 
	C420.331116,66.369148 420.287781,77.533112 428.906677,81.923012 
	C434.167908,84.602715 440.124695,85.926704 445.787933,87.802704 
	C448.305908,88.636818 450.910187,89.218781 453.407013,90.107086 
	C464.904388,94.197540 470.658783,102.327332 470.249847,113.767464 
	C469.852325,124.889427 463.616943,132.766876 452.068451,135.922546 
	C440.893799,138.976074 429.922028,138.549484 419.957642,131.869705 
	C413.227173,127.357849 409.495270,121.036285 409.515778,112.130638 
	C412.422791,112.130638 415.094849,111.841202 417.650635,112.260452 
	C418.818024,112.451942 420.441254,113.894829 420.680756,115.020569 
	C421.760986,120.097923 424.915314,123.273430 429.404297,125.195206 
	C436.626190,128.286926 444.015930,128.416428 451.140808,125.025269 
	C460.669312,120.490074 461.929199,107.383789 452.980591,101.851357 
	C447.880798,98.698456 441.653809,97.342979 435.892120,95.297180 
	C432.920807,94.242149 429.780029,93.644745 426.848907,92.499809 
	C415.992462,88.259102 411.202911,81.898224 411.139465,71.842690 
	C411.071899,61.135109 416.781677,54.526684 426.648529,50.483994 
z"/>
<path fill="#6F6F6F" opacity="1.000000" stroke="none" 
	d="
M581.169556,123.989014 
	C581.169617,128.132843 581.169617,131.779144 581.169617,135.802704 
	C577.484375,135.802704 574.072815,135.802704 570.305359,135.802704 
	C570.170776,134.946060 569.848328,133.853241 569.850037,132.760956 
	C569.875305,117.109207 569.758728,101.454048 570.050659,85.806702 
	C570.399475,67.115952 580.500244,53.277752 597.108276,49.681248 
	C611.957275,46.465672 626.040833,48.064732 636.839417,60.466640 
	C641.913757,66.294395 644.936646,73.354988 645.115784,80.929634 
	C645.547119,99.170624 645.255493,117.428711 645.255493,135.936584 
	C642.229553,135.936584 638.948669,135.936584 634.832947,135.936584 
	C634.832947,134.084076 634.858948,132.172318 634.828796,130.261459 
	C634.582092,114.623093 634.870728,98.951408 633.914429,83.356216 
	C632.997620,68.404419 622.902405,59.412445 608.557251,59.169647 
	C593.766357,58.919300 583.304321,67.515656 582.073486,82.599762 
	C580.966675,96.164612 581.409973,109.855949 581.169556,123.989014 
z"/>
<path fill="#F4F4F4" opacity="1.000000" stroke="none" 
	d="
M86.031479,105.138733 
	C89.302994,107.520935 92.514198,112.429764 95.812386,112.488937 
	C99.092857,112.547768 102.513649,107.796562 105.774849,105.038612 
	C108.818558,102.464592 112.053474,100.010208 114.611794,96.999710 
	C117.000572,94.188713 118.610626,90.715935 120.770752,87.196678 
	C123.022888,91.949585 121.205528,95.833557 118.344193,99.103928 
	C115.405869,102.462280 111.837479,105.264412 108.602509,108.370049 
	C106.690186,110.205917 104.904335,112.172813 103.035545,114.054901 
	C100.049034,117.062668 100.523430,119.370720 103.638153,122.326378 
	C112.321861,130.566620 120.648346,139.183792 129.099442,147.668503 
	C133.297852,151.883621 133.888367,151.824493 138.126419,147.419464 
	C142.729858,142.634628 147.234741,137.715652 152.213623,133.346329 
	C155.139343,130.778793 158.806351,128.646027 162.420944,130.717422 
	C155.029785,137.722397 147.608932,144.862946 140.052048,151.856491 
	C137.568832,154.154587 137.231094,156.139282 139.807602,158.485901 
	C144.096054,162.391724 148.341797,166.344482 152.797409,170.539444 
	C153.745361,175.479065 149.363907,172.248169 147.813782,174.051819 
	C143.013733,169.132874 138.573593,164.091827 133.666382,158.520508 
	C125.159676,168.714188 112.616119,173.243118 109.155838,186.270386 
	C108.685486,186.188293 108.215134,186.106201 107.744781,186.024094 
	C107.744781,183.817871 106.883736,181.031906 107.905830,179.513824 
	C111.002029,174.915176 114.375603,170.311325 118.451195,166.598816 
	C132.586975,153.722366 131.458908,157.644638 120.061172,144.813736 
	C113.551773,137.485840 106.152901,130.950516 99.199669,124.013069 
	C96.832680,121.651443 95.020996,121.757393 92.627869,124.288490 
	C87.251305,129.975037 81.609047,135.417053 75.943626,140.820938 
	C73.144859,143.490494 69.852020,144.698807 66.644272,143.072662 
	C75.199257,134.925186 83.807564,126.726944 92.614830,118.339211 
	C89.709511,115.055763 87.430222,112.479820 85.018616,109.608673 
	C85.260620,108.055710 85.634949,106.797943 86.031479,105.138733 
z"/>
<path fill="#717171" opacity="1.000000" stroke="none" 
	d="
M399.531281,134.528275 
	C395.880890,135.512817 392.302582,136.045517 388.379395,136.629562 
	C388.379395,107.262299 388.379395,78.906631 388.379395,50.190994 
	C392.034393,50.190994 395.564514,50.190994 399.603333,50.190994 
	C399.603333,78.285728 399.603333,106.181084 399.531281,134.528275 
z"/>
<path fill="#757575" opacity="1.000000" stroke="none" 
	d="
M579.350708,188.708633 
	C568.496643,191.739243 556.559204,189.942703 555.392395,181.098251 
	C558.084534,181.835510 560.447998,181.997681 562.254944,183.084732 
	C565.420593,184.989166 573.989136,185.772446 577.067993,183.532562 
	C578.373718,182.582611 579.873535,180.561478 579.693237,179.245255 
	C579.467468,177.597305 577.913025,175.525681 576.379944,174.794388 
	C573.580933,173.459244 570.340942,173.082123 567.351318,172.102859 
	C564.855774,171.285446 562.229126,170.529007 560.057861,169.129242 
	C555.001587,165.869492 554.070190,159.415649 557.667114,154.825760 
	C563.631042,147.215500 580.147034,148.883713 584.640015,157.613297 
	C582.165283,159.383438 580.459351,158.769440 577.461609,157.554871 
	C573.370056,155.897110 567.879272,156.307175 563.408081,157.459381 
	C560.433777,158.225830 560.419250,162.153442 563.104797,164.390335 
	C564.674133,165.697464 566.883545,166.348145 568.904114,166.974457 
	C571.747192,167.855743 574.770752,168.196564 577.557434,169.208252 
	C581.858948,170.769882 585.179077,173.686172 585.652039,178.450211 
	C586.103638,182.999695 583.768494,186.388733 579.350708,188.708633 
z"/>
<path fill="#757575" opacity="1.000000" stroke="none" 
	d="
M623.034058,172.882462 
	C623.025452,183.553940 624.594788,185.200699 633.823303,184.685303 
	C639.676819,184.358398 641.312195,182.637085 641.344604,176.613724 
	C641.387634,168.614334 641.375916,160.614624 641.401184,152.615112 
	C641.402222,152.292892 641.540955,151.971085 641.726318,151.170624 
	C643.131226,151.009018 644.696472,150.828964 646.879211,150.577881 
	C646.879211,161.116119 646.881775,171.365082 646.867493,181.614044 
	C646.867065,181.933563 646.705078,182.257050 646.597656,182.571625 
	C644.581482,188.475708 637.520508,191.197739 627.672302,189.869904 
	C621.554932,189.045105 617.322754,184.954758 617.191528,179.077728 
	C616.987305,169.927841 617.137573,160.770035 617.137573,151.132477 
	C619.044006,150.974411 620.747375,150.833176 623.034058,150.643585 
	C623.034058,158.171555 623.034058,165.286484 623.034058,172.882462 
z"/>
<path fill="#727272" opacity="1.000000" stroke="none" 
	d="
M321.691864,184.726807 
	C323.599518,184.806976 325.100006,184.880112 326.594757,184.817078 
	C332.468109,184.569305 334.349030,182.718399 334.393951,176.904724 
	C334.459503,168.429657 334.410797,159.953690 334.410797,151.119247 
	C336.231689,150.957321 337.816833,150.816345 339.921387,150.629196 
	C339.921387,161.070709 339.923309,171.167267 339.912689,181.263824 
	C339.912354,181.588654 339.804657,181.919464 339.711700,182.237167 
	C338.019196,188.021744 331.471527,190.802170 321.526642,189.963867 
	C315.053497,189.418228 310.352814,185.386078 310.185059,179.473587 
	C309.921448,170.184494 310.115051,160.882431 310.115051,151.150391 
	C312.023560,151.012314 313.580139,150.899704 315.873535,150.733780 
	C315.873535,159.565872 315.993988,167.997284 315.822510,176.422745 
	C315.737366,180.606262 316.938080,183.582001 321.691864,184.726807 
z"/>
<path fill="#6E6E6E" opacity="1.000000" stroke="none" 
	d="
M500.200256,155.999969 
	C498.932617,154.591034 498.135193,153.189743 496.948853,151.105011 
	C507.682983,151.105011 517.083496,151.105011 526.835449,151.105011 
	C526.927856,152.616821 527.013550,154.019653 527.135132,156.009445 
	C523.094055,156.009445 519.364563,156.009445 515.259949,156.009445 
	C515.259949,167.330368 515.259949,178.095184 515.259949,189.230240 
	C513.335571,189.230240 511.810730,189.230240 509.849792,189.230240 
	C509.849792,178.209503 509.849792,167.452866 509.849792,156.007614 
	C506.522675,156.007614 503.596558,156.007614 500.200256,155.999969 
z"/>
<path fill="#777777" opacity="1.000000" stroke="none" 
	d="
M232.468719,188.673187 
	C228.985931,189.595245 225.841522,190.331360 222.240189,191.174438 
	C222.240189,188.670578 222.240189,187.112106 222.240189,185.587036 
	C231.523529,184.213837 231.679398,184.035095 231.690552,174.566498 
	C231.699707,166.784912 231.692398,159.003311 231.692398,150.957489 
	C233.669006,150.957489 235.261475,150.957489 237.049164,150.957489 
	C237.049164,161.527359 237.268036,172.073990 236.857544,182.596069 
	C236.778992,184.609421 234.221130,186.526016 232.468719,188.673187 
z"/>
<path fill="#707070" opacity="1.000000" stroke="none" 
	d="
M428.573853,179.428833 
	C427.187775,187.918549 422.771606,190.992157 413.316132,190.229004 
	C413.316132,188.715118 413.316132,187.169800 413.316132,185.630173 
	C422.816437,184.164886 422.988678,183.961182 422.988312,174.324448 
	C422.988037,166.708710 422.988251,159.092957 422.988251,151.151306 
	C424.858582,151.151306 426.407043,151.151306 428.579865,151.151306 
	C428.579865,160.493866 428.579865,169.741730 428.573853,179.428833 
z"/>
<path fill="#7A7A7A" opacity="1.000000" stroke="none" 
	d="
M493.712158,218.865356 
	C493.675659,222.431580 493.841339,225.601288 493.580811,228.735565 
	C493.486816,229.865997 492.369446,230.911331 491.719055,231.995499 
	C491.178802,230.978455 490.196991,229.972458 490.171204,228.942551 
	C490.022064,222.984451 490.098389,217.020737 490.098389,210.628235 
	C496.205505,209.847443 496.679016,216.124283 500.649231,218.149841 
	C503.523010,215.417328 506.553558,212.535736 509.584106,209.654160 
	C509.968048,209.955078 510.351959,210.255997 510.735901,210.556915 
	C510.735901,217.602676 510.735901,224.648438 510.735901,231.884506 
	C505.857880,232.041473 508.006897,228.349213 507.720490,226.346069 
	C507.362976,223.845276 507.634644,221.254547 507.634644,218.702652 
	C507.195160,218.578171 506.755676,218.453690 506.316193,218.329224 
	C504.450134,220.027313 502.584106,221.725388 500.402985,223.710220 
	C498.779114,221.832016 497.342224,220.038666 495.731628,218.417877 
	C495.408905,218.093124 494.424957,218.425491 493.712158,218.865356 
z"/>
<path fill="#7A7A7A" opacity="1.000000" stroke="none" 
	d="
M462.092377,172.998047 
	C462.092407,165.408737 462.092407,158.319031 462.092407,150.929565 
	C464.150146,150.929565 465.724426,150.929565 467.612885,150.929565 
	C467.612885,163.683395 467.612885,176.348282 467.612885,189.354889 
	C465.884491,189.354889 464.327728,189.354889 462.092346,189.354889 
	C462.092346,183.985336 462.092346,178.741501 462.092377,172.998047 
z"/>
<path fill="#757575" opacity="1.000000" stroke="none" 
	d="
M273.947266,189.646454 
	C272.672455,188.743256 271.097870,187.850540 271.085236,186.936142 
	C270.919708,174.999146 270.975311,163.059052 270.975311,150.659164 
	C273.159851,150.789505 274.891357,150.892807 276.887268,151.011887 
	C276.887268,163.233002 276.944855,175.034988 276.778534,186.833832 
	C276.765137,187.782608 275.211395,188.709702 273.947266,189.646454 
z"/>
<path fill="#858585" opacity="1.000000" stroke="none" 
	d="
M469.703552,220.211639 
	C468.856476,221.315598 467.918884,222.441864 466.795349,222.676117 
	C465.087891,223.032120 463.251404,222.769257 461.216156,222.769257 
	C461.216156,224.938171 461.216156,226.549164 461.216156,228.924347 
	C464.448425,228.924347 467.712708,228.810074 470.958405,229.005035 
	C471.765625,229.053528 472.512756,230.101746 473.287506,230.690460 
	C472.545776,231.150024 471.815186,231.984833 471.060516,232.007172 
	C466.746460,232.134811 462.426636,232.069183 457.666748,232.069183 
	C457.666748,224.960999 457.666748,218.076294 457.666748,210.287399 
	C462.049408,210.287399 466.624512,210.217545 471.192230,210.369858 
	C471.810181,210.390457 472.390991,211.526398 472.988983,212.145889 
	C472.282410,212.666351 471.597961,213.596497 470.865417,213.636063 
	C467.759125,213.803864 464.638550,213.707245 461.257751,213.707245 
	C461.257751,215.730453 461.257751,217.141617 461.257751,218.790665 
	C464.069489,219.145477 466.799622,219.490005 469.703552,220.211639 
z"/>
<path fill="#757575" opacity="1.000000" stroke="none" 
	d="
M422.972992,223.948273 
	C422.972443,219.318344 422.972443,215.176437 422.972443,210.411530 
	C428.281982,210.926376 434.855957,207.852127 437.504669,212.981995 
	C439.719910,217.272354 439.836884,224.089569 438.030365,228.660400 
	C435.578094,234.865250 428.661194,231.084625 422.973541,232.259827 
	C422.973541,229.285416 422.973541,226.860855 422.972992,223.948273 
M426.170013,222.425995 
	C426.170013,224.512100 426.170013,226.598206 426.170013,230.113129 
	C430.048157,228.746857 434.630676,228.374756 435.191498,226.675400 
	C436.347656,223.172226 436.110962,218.696716 434.876862,215.170959 
	C434.386566,213.770233 429.728149,213.828476 426.170776,213.047653 
	C426.170776,216.565414 426.170776,219.021088 426.170013,222.425995 
z"/>
<path fill="#777777" opacity="1.000000" stroke="none" 
	d="
M324.017944,225.919662 
	C325.637115,221.316696 327.050842,217.047729 328.755035,212.898041 
	C329.225494,211.752426 330.561310,210.962219 331.500061,210.008942 
	C332.323517,210.887268 333.516541,211.626022 333.909668,212.666901 
	C336.249146,218.860703 338.403687,225.124390 341.113739,232.753601 
	C337.206329,230.469955 334.497620,228.628189 331.574371,227.237137 
	C326.820374,224.974899 326.790253,232.419373 322.062317,232.166977 
	C322.791107,229.867325 323.356598,228.082993 324.017944,225.919662 
M332.385681,218.456787 
	C332.130249,217.797302 331.874786,217.137817 331.261536,215.554474 
	C330.217804,218.838242 329.465027,221.206635 328.526947,224.158081 
	C330.846527,224.028519 332.355225,223.944244 334.171875,223.842773 
	C333.587372,221.920654 333.162750,220.524277 332.385681,218.456787 
z"/>
<path fill="#777777" opacity="1.000000" stroke="none" 
	d="
M393.041138,227.843292 
	C391.656372,229.579712 390.545807,231.007050 389.435211,232.434402 
	C388.915741,232.082413 388.396271,231.730423 387.876801,231.378433 
	C390.211700,224.871826 392.490967,218.344009 394.951599,211.885300 
	C395.260620,211.074234 396.474335,210.262360 397.365265,210.137177 
	C397.982635,210.050430 399.146362,211.002167 399.415009,211.730133 
	C401.812073,218.225677 404.064209,224.774704 405.961670,231.910522 
	C401.839325,229.790695 398.782349,224.774734 393.041138,227.843292 
M396.821075,216.909454 
	C396.034607,219.111404 395.248138,221.313370 394.349030,223.830658 
	C396.599640,223.830658 398.134735,223.830658 400.160217,223.830658 
	C399.156647,221.149780 398.311951,218.893219 396.821075,216.909454 
z"/>
<path fill="#7A7A7A" opacity="1.000000" stroke="none" 
	d="
M359.915894,224.690369 
	C361.118530,229.209000 364.274872,230.330093 368.716675,228.291870 
	C369.566193,227.902054 370.425903,227.480270 371.326813,227.285233 
	C371.653870,227.214432 372.114960,227.762939 372.507935,228.024261 
	C370.420868,232.020035 367.210083,233.160599 361.712738,232.084579 
	C357.695465,231.298279 356.296875,228.666946 356.321838,224.900696 
	C356.336182,222.735641 356.405243,220.567108 356.312317,218.406052 
	C356.145752,214.532410 357.162964,211.055222 361.335754,210.387573 
	C365.427612,209.732849 370.101685,208.862366 372.995544,214.680099 
	C371.411743,214.680099 370.162292,215.020813 369.222198,214.625641 
	C362.344391,211.734634 359.939301,213.139969 359.920563,220.237640 
	C359.917053,221.570038 359.919189,222.902420 359.915894,224.690369 
z"/>
<path fill="#777777" opacity="1.000000" stroke="none" 
	d="
M538.353516,229.666779 
	C537.789490,230.701782 537.303833,231.495651 536.596619,231.863251 
	C536.362610,231.984894 535.018066,230.888702 535.092834,230.551163 
	C536.901001,222.385559 531.305664,216.986481 527.037476,210.647705 
	C533.515259,209.612213 533.127869,216.098328 536.592163,217.669556 
	C539.913025,216.007416 539.693726,209.712845 545.963989,210.634689 
	C542.280029,216.788849 536.403748,221.535217 538.353516,229.666779 
z"/>
<path fill="#F4F4F4" opacity="1.000000" stroke="none" 
	d="
M82.007629,166.234528 
	C87.319221,161.509689 92.628586,157.195953 97.937950,152.882217 
	C98.126579,152.956512 98.315216,153.030792 98.503845,153.105087 
	C93.853645,158.929977 89.203438,164.754883 84.292770,170.793137 
	C83.356674,169.552887 82.681046,168.099274 82.007629,166.234528 
z"/>
<path fill="#F4F4F4" opacity="1.000000" stroke="none" 
	d="
M149.757782,177.286850 
	C149.834137,177.058990 149.975235,176.839157 150.116333,176.619324 
	C150.125015,176.793610 150.133713,176.967911 149.994797,177.282562 
	C149.847168,177.422943 149.822495,177.294876 149.757782,177.286850 
z"/>
<path fill="#FDFDFD" opacity="1.000000" stroke="none" 
	d="
M514.725647,126.422897 
	C496.585846,123.939545 484.346252,108.859489 485.486237,91.456726 
	C486.781830,71.678787 501.456696,58.599808 520.234497,59.154266 
	C536.768433,59.642464 550.461853,72.993179 551.861267,89.989334 
	C553.279053,107.210030 541.806274,122.991699 525.500793,125.941856 
	C522.126038,126.552460 518.600952,126.332520 514.725647,126.422897 
z"/>
<path fill="#FDFDFD" opacity="1.000000" stroke="none" 
	d="
M426.170410,221.951370 
	C426.170776,219.021088 426.170776,216.565414 426.170776,213.047653 
	C429.728149,213.828476 434.386566,213.770233 434.876862,215.170959 
	C436.110962,218.696716 436.347656,223.172226 435.191498,226.675400 
	C434.630676,228.374756 430.048157,228.746857 426.170013,230.113129 
	C426.170013,226.598206 426.170013,224.512100 426.170410,221.951370 
z"/>
<path fill="#F4F4F4" opacity="1.000000" stroke="none" 
	d="
M332.561890,218.792328 
	C333.162750,220.524277 333.587372,221.920654 334.171875,223.842773 
	C332.355225,223.944244 330.846527,224.028519 328.526947,224.158081 
	C329.465027,221.206635 330.217804,218.838242 331.261536,215.554474 
	C331.874786,217.137817 332.130249,217.797302 332.561890,218.792328 
z"/>
<path fill="#F4F4F4" opacity="1.000000" stroke="none" 
	d="
M397.144165,216.773056 
	C398.311951,218.893219 399.156647,221.149780 400.160217,223.830658 
	C398.134735,223.830658 396.599640,223.830658 394.349030,223.830658 
	C395.248138,221.313370 396.034607,219.111404 397.144165,216.773056 
z"/>
</svg>