<?xml version="1.0" encoding="UTF-8"?>
<svg version="1.1" xmlns="http://www.w3.org/2000/svg" width="100" height="100">
<path d="M0 0 C247.5 0 495 0 750 0 C750 90.09 750 180.18 750 273 C502.5 273 255 273 0 273 C0 182.91 0 92.82 0 0 Z " fill="#FEFEFE" transform="translate(0,0)"/>
<path d="M0 0 C3.98074371 3.70930027 7.50719841 7.83652739 11 12 C9.33339359 16.06296946 6.50185748 19.06692928 3.5625 22.25 C3.03624023 22.82194092 2.50998047 23.39388184 1.96777344 23.9831543 C-2.86519572 29.09960956 -8.09522879 33.15259986 -14 37 C-10.6675213 37.33417929 -10.6675213 37.33417929 -7 37 C-4.68622853 35.10415891 -4.68622853 35.10415891 -3 33 C-2.34 33 -1.68 33 -1 33 C-0.731875 32.360625 -0.46375 31.72125 -0.1875 31.0625 C1 29 1 29 4 28 C4.28875 27.401875 4.5775 26.80375 4.875 26.1875 C6.35564308 23.30847178 8.46214569 21.96683709 11 20 C11.99 18.515 11.99 18.515 13 17 C17.97921139 17.38480892 20.46712738 19.92652743 23.78125 23.35546875 C24.31721802 23.89472488 24.85318604 24.43398102 25.40539551 24.98957825 C27.113166 26.71306184 28.80630338 28.45019611 30.5 30.1875 C31.63845276 31.33745065 32.7777675 32.48654862 33.91796875 33.63476562 C35.01900244 34.74923658 36.11928727 35.86444797 37.21875 36.98046875 C37.72410278 37.49320847 38.22945557 38.00594818 38.75012207 38.53422546 C47.96836311 47.99692443 47.96836311 47.99692443 48.06640625 51.10546875 C46.6654738 53.59430478 44.99343044 55.32709891 42.9375 57.3125 C42.12925781 58.09753906 41.32101563 58.88257813 40.48828125 59.69140625 C38.24529698 61.77241678 35.95830839 63.77166617 33.625 65.75 C30.73084878 68.25788004 28.48215692 70.3872425 27 74 C26.74863967 77.20916171 26.74863967 77.20916171 27 80 C27.66 80.33 28.32 80.66 29 81 C29.020625 80.175 29.04125 79.35 29.0625 78.5 C31.09794387 70.90100956 37.91701054 66.03692054 43.6875 61.0625 C44.24598633 60.5775708 44.80447266 60.0926416 45.37988281 59.59301758 C50.85717611 54.99336957 50.85717611 54.99336957 54 55 C61.64138912 59.61825506 67.1771157 67.67991997 70 76 C70.79815825 82.15722078 69.16640042 86.79927243 66 92 C63.20795228 95.5459006 60.15636839 98.77766249 57 102 C56.23945313 102.78761719 55.47890625 103.57523437 54.6953125 104.38671875 C50.62162577 108.53793239 46.41048656 112.44279724 41.99609375 116.2265625 C38.50758449 119.32594254 35.26663579 122.67049669 32 126 C19.36726373 117.05305533 2.99515064 104.10264156 0 88 C-0.92246379 75.99284838 0.90564885 67.22133758 8.41015625 57.75 C9.95030963 56.05469604 11.53089202 54.62304025 13.3125 53.1875 C16.22612346 51.21519158 16.22612346 51.21519158 17 48 C16.401875 48.66 15.80375 49.32 15.1875 50 C5.97596048 59.10774752 -4.03945088 65.05022817 -17.125 65.5 C-30.28049925 65.05526666 -38.6888595 57.63364876 -47.3762207 48.39575195 C-49.73984732 45.84673078 -52.07991816 43.27674354 -54.41992188 40.70605469 C-56.55163317 38.40438619 -58.76092073 36.19699131 -61 34 C-59.70333581 31.15038147 -58.33066243 29.07598626 -56.13012695 26.85546875 C-55.26331047 25.97435425 -55.26331047 25.97435425 -54.37898254 25.07543945 C-53.75505112 24.45241943 -53.13111969 23.82939941 -52.48828125 23.1875 C-51.84183151 22.53676514 -51.19538177 21.88603027 -50.52934265 21.21557617 C-49.16086853 19.84136518 -47.78977409 18.46975929 -46.41625977 17.10058594 C-44.32873553 15.01621104 -42.25485498 12.91890913 -40.18164062 10.8203125 C-38.84716622 9.48356383 -37.51190456 8.14760053 -36.17578125 6.8125 C-35.56197098 6.18947998 -34.94816071 5.56645996 -34.31575012 4.92456055 C-24.13547005 -5.14890228 -12.38548791 -8.84161108 0 0 Z " fill="#6E6E6E" transform="translate(80,104)"/>
<path d="M0 0 C5.63985581 2.34520505 9.59954659 7.18921964 13.85375977 11.42822266 C15.41691823 12.97957369 16.99772 14.51124016 18.58007812 16.04296875 C26.49387411 23.82901896 32.9473832 31.96999591 33.3125 43.5 C33.18433464 53.15512388 29.62496738 62.00003447 23 69 C21.18671789 70.66465243 19.34901915 72.24735352 17.41796875 73.7734375 C15.85788449 74.96432478 15.85788449 74.96432478 15 77 C15.70962891 76.34644531 15.70962891 76.34644531 16.43359375 75.6796875 C26.59047936 66.53255075 36.65267345 59.06210101 50.8046875 59.63671875 C61.86976757 60.89472908 68.44350765 67.47486239 76 75 C76.83015625 75.804375 77.6603125 76.60875 78.515625 77.4375 C83.25902639 82.08409728 87.70783593 86.93497038 92 92 C90.38975656 96.09880148 87.42202937 98.76234786 84.3125 101.75 C80.83724128 105.14638102 77.44405393 108.52758683 74.3125 112.25 C66.96552674 120.76540757 58.77010561 127.96398592 47.25 129.5 C38.18187242 128.10490345 31.02338273 122.48451144 24.875 115.875 C23 113 23 113 23.04296875 110.68359375 C24.34440681 107.0342552 26.6920497 104.80038726 29.4375 102.1875 C29.94087891 101.68541016 30.44425781 101.18332031 30.96289062 100.66601562 C34.71868622 97 34.71868622 97 37 97 C37.36738281 96.09314453 37.36738281 96.09314453 37.7421875 95.16796875 C39.22807046 92.6068972 40.57164234 91.7630634 43.125 90.3125 C44.42914196 89.56296645 45.72478297 88.79775205 47 88 C47 87.67 47 87.34 47 87 C40.06665156 87.14751805 35.98495856 90.35007938 31 95 C30.34 95.99 29.68 96.98 29 98 C28.34 98 27.68 98 27 98 C26.773125 98.556875 26.54625 99.11375 26.3125 99.6875 C24.59377841 102.71572375 22.67211603 104.77323664 20 107 C16.75480509 106.68743751 15.06338889 105.44955602 12.77612305 103.21191406 C12.17257492 102.62750549 11.56902679 102.04309692 10.94718933 101.440979 C10.30848404 100.80561218 9.66977875 100.17024536 9.01171875 99.515625 C8.34912552 98.86301697 7.68653229 98.21040894 7.00386047 97.5380249 C5.60726786 96.15660895 4.21471164 94.77110201 2.82592773 93.38183594 C0.69348382 91.25596538 -1.46178002 89.15523014 -3.61914062 87.0546875 C-4.97282033 85.70980748 -6.32508364 84.36349998 -7.67578125 83.015625 C-8.3246077 82.3883551 -8.97343414 81.76108521 -9.641922 81.11480713 C-11.26375122 79.46751069 -12.7286608 77.9306006 -14 76 C-13.93518462 70.63791582 -10.60530947 67.62856953 -7 64 C-5.63823827 62.77676681 -4.26297883 61.56840236 -2.875 60.375 C3.00522358 55.31396787 5.45874211 51.57785128 7 44 C4.66791726 44.9215844 4.66791726 44.9215844 3.4375 48 C0.57160556 53.19909474 -3.69949365 56.9824217 -8 61 C-8.721875 61.6909375 -9.44375 62.381875 -10.1875 63.09375 C-16.41794521 68.85219178 -16.41794521 68.85219178 -21 69 C-28.89783192 63.90418149 -34.42796454 54.60896541 -36.57421875 45.5859375 C-37.18502352 37.90337078 -32.55669096 32.1654269 -27.94921875 26.4609375 C-22.73584997 20.47899038 -16.9894289 15.19019643 -11 10 C-9.5205709 8.70863392 -8.04138312 7.4169913 -6.5625 6.125 C-5.94503906 5.59132813 -5.32757813 5.05765625 -4.69140625 4.5078125 C-3.0657466 3.05861014 -1.52324139 1.555849 0 0 Z " fill="#6E6E6E" transform="translate(114,43)"/>
<path d="M0 0 C7.3775704 5.23113441 12.0920708 12.55482952 14.3125 21.3125 C15.72177426 31.66473897 13.43814197 40.97559584 7.73828125 49.73046875 C2.09496731 56.7418588 -5.76872218 61.11668621 -14.6875 62.3125 C-24.74250414 63.21342837 -32.71053461 60.45108659 -40.6875 54.3125 C-47.71712857 47.89850081 -51.74415117 39.63019164 -52.9609375 30.19140625 C-53.36435992 20.99027181 -50.29674992 12.14540492 -44.625 4.875 C-32.46973307 -7.76219381 -14.41151636 -8.82976044 0 0 Z " fill="#FDFDFD" transform="translate(536.6875,63.6875)"/>
<path d="M0 0 C2.0543001 1.44849515 3.93298564 2.98104298 5.81640625 4.64453125 C6.43386719 5.18078125 7.05132813 5.71703125 7.6875 6.26953125 C16.30728742 14.27759182 20.7353903 24.74728149 21.22094727 36.44287109 C21.44095015 50.30468252 16.92246249 61.35195459 7.44140625 71.39453125 C-1.30080091 79.67662225 -11.09465977 83.22860848 -23.05859375 83.08203125 C-24.37512939 83.06958374 -24.37512939 83.06958374 -25.71826172 83.05688477 C-37.96700112 82.73824972 -47.26586802 78.13074193 -56.1875 69.765625 C-65.42711772 59.88741599 -68.75592926 48.3425623 -68.4921875 35.046875 C-67.23428003 21.17804707 -60.4461917 10.4816654 -49.9453125 1.62890625 C-36.08058929 -8.3332994 -14.54133426 -9.02655275 0 0 Z M-47.28125 13.73828125 C-53.76434872 21.67782163 -58.00197239 29.69588384 -57.50390625 40.171875 C-56.11163029 50.91956625 -51.63248011 59.21024538 -43.3046875 66.10546875 C-35.70106867 71.62264337 -28.49256655 73.36781835 -19.18359375 72.64453125 C-10.31403991 71.04665743 -2.61443114 66.98146395 3.12890625 59.95703125 C9.01966979 51.29317847 11.23046803 42.03912576 9.81640625 31.64453125 C7.33081888 22.60403205 3.01189585 15.0559375 -4.90234375 9.859375 C-18.38085188 2.19619094 -35.66189649 2.14056527 -47.28125 13.73828125 Z " fill="#6F6F6F" transform="translate(541.18359375,53.35546875)"/>
<path d="M0 0 C1.34771484 -0.02416992 1.34771484 -0.02416992 2.72265625 -0.04882812 C13.62309941 -0.05676149 20.65937878 3.8098366 28.5 11.3125 C36.98830525 21.39741504 37.65632816 34.69543902 37.59765625 47.2734375 C37.5962413 48.41914215 37.59482635 49.5648468 37.59336853 50.74526978 C37.5877858 54.39270678 37.57523641 58.04008165 37.5625 61.6875 C37.55748277 64.16536369 37.55292025 66.64322835 37.54882812 69.12109375 C37.53782201 75.18491965 37.5205692 81.2486993 37.5 87.3125 C33.54 87.3125 29.58 87.3125 25.5 87.3125 C25.4906543 85.66846191 25.48130859 84.02442383 25.47167969 82.33056641 C25.43164161 76.19878597 25.36584325 70.06749995 25.29248047 63.93603516 C25.26435105 61.28831358 25.24309684 58.64050928 25.22900391 55.99267578 C25.20746404 52.17437636 25.16075353 48.3570632 25.109375 44.5390625 C25.10814636 43.36574371 25.10691772 42.19242493 25.10565186 40.98355103 C24.95538449 32.44540218 23.60169812 25.27578094 18.25 18.4375 C10.60341284 12.52877355 3.09149513 10.49037185 -6.5 11.3125 C-12.081221 12.71505987 -17.87173111 15.01779362 -21.265625 19.80078125 C-21.75546875 20.73277344 -22.2453125 21.66476563 -22.75 22.625 C-23.25015625 23.54925781 -23.7503125 24.47351563 -24.265625 25.42578125 C-26.27183162 30.1175113 -26.62055399 34.7970099 -26.70532227 39.85888672 C-26.72526749 40.91953339 -26.74521271 41.98018005 -26.76576233 43.07296753 C-26.78247482 44.20131012 -26.79918732 45.32965271 -26.81640625 46.4921875 C-26.83718735 47.6600882 -26.85796844 48.82798889 -26.87937927 50.03128052 C-26.94459175 53.74996238 -27.00362801 57.46871289 -27.0625 61.1875 C-27.10571213 63.71354867 -27.14932728 66.23959049 -27.19335938 68.765625 C-27.30024412 74.94784689 -27.40159102 81.13013762 -27.5 87.3125 C-31.46 87.3125 -35.42 87.3125 -39.5 87.3125 C-39.54984582 80.57219491 -39.58592873 73.83199974 -39.60986328 67.09155273 C-39.61985288 64.80377328 -39.63344917 62.51600636 -39.65087891 60.22827148 C-39.93896133 21.41340162 -39.93896133 21.41340162 -27.5 8.3125 C-19.0588552 1.24950129 -10.6987509 -0.03837429 0 0 Z " fill="#727272" transform="translate(341.5,47.6875)"/>
<path d="M0 0 C3.63 0 7.26 0 11 0 C11.0093457 1.6085083 11.01869141 3.2170166 11.02832031 4.87426758 C11.06839899 10.88121536 11.13420808 16.88766061 11.20751953 22.89428711 C11.23562561 25.48666902 11.25689129 28.07913497 11.27099609 30.67163086 C11.29256866 34.41303212 11.33929508 38.15343378 11.390625 41.89453125 C11.39185364 43.04081497 11.39308228 44.18709869 11.39434814 45.36811829 C11.54908015 54.00225112 12.89304455 61.94369705 18.25 68.9375 C25.91873637 74.68905228 33.44028819 76.95871035 43 76 C50.22023427 74.24258227 55.00563563 71.25447407 59 65 C62.99560001 57.40923885 63.60033701 50.4623419 63.609375 41.9921875 C63.62591125 40.7855545 63.64244751 39.57892151 63.65948486 38.33572388 C63.70772426 34.51542955 63.72928337 30.69553263 63.75 26.875 C63.77817963 24.2708136 63.80810982 21.66664551 63.83984375 19.0625 C63.91347745 12.70836607 63.96319939 6.35444967 64 0 C67.96 0 71.92 0 76 0 C76.0497743 7.04344679 76.08589574 14.08678912 76.10986328 21.13037109 C76.11986466 23.52199082 76.13347009 25.9135985 76.15087891 28.30517578 C76.17538669 31.76077262 76.18654208 35.21620651 76.1953125 38.671875 C76.20563507 39.72550232 76.21595764 40.77912964 76.22659302 41.86468506 C76.2281065 52.08555647 75.56798337 62.18709917 70 71 C69.59007812 71.67804688 69.18015625 72.35609375 68.7578125 73.0546875 C63.86509372 80.37994444 56.47550153 84.81149022 48 87 C37.70092456 87.98894031 26.03338838 88.65691641 17 83 C16.28972656 82.5875 15.57945312 82.175 14.84765625 81.75 C6.18645533 76.07263925 2.13634582 66.84202374 0 57 C-0.38138513 52.51162706 -0.35129068 48.05653385 -0.29296875 43.5546875 C-0.28872391 42.30366241 -0.28447906 41.05263733 -0.28010559 39.76370239 C-0.26625204 36.47237125 -0.23940206 33.18149918 -0.20599365 29.89031982 C-0.1750482 26.51808222 -0.16154853 23.14577682 -0.14648438 19.7734375 C-0.11355528 13.18209229 -0.06184541 6.59113475 0 0 Z " fill="#717171" transform="translate(221,49)"/>
<path d="M0 0 C2.04049957 1.69609583 3.91725751 3.46119579 5.77734375 5.3515625 C6.51984375 6.0940625 7.26234375 6.8365625 8.02734375 7.6015625 C12.65294087 14.87035797 14.91056183 23.40169562 14.89086914 31.96801758 C14.89075584 33.61916313 14.89075584 33.61916313 14.89064026 35.30366516 C14.88547897 36.4809166 14.88031769 37.65816803 14.875 38.87109375 C14.87358505 40.08480148 14.8721701 41.29850922 14.87071228 42.54899597 C14.8651204 46.42071002 14.85256933 50.29236597 14.83984375 54.1640625 C14.8348277 56.79101479 14.83026498 59.41796799 14.82617188 62.04492188 C14.81515362 68.48049109 14.7978945 74.91601695 14.77734375 81.3515625 C11.14734375 81.3515625 7.51734375 81.3515625 3.77734375 81.3515625 C3.76276123 79.86946289 3.74817871 78.38736328 3.7331543 76.86035156 C3.67478348 71.31373055 3.59755498 65.76749916 3.51489258 60.22119141 C3.48182465 57.82965461 3.4537375 55.43804317 3.4309082 53.04638672 C3.39702696 49.59049943 3.34469576 46.13528518 3.2890625 42.6796875 C3.28267258 41.62606018 3.27628265 40.57243286 3.2696991 39.48687744 C3.08014614 29.71769116 1.96873632 19.71843081 -4.47265625 11.97265625 C-10.79218295 6.1186304 -18.47111569 4.92295403 -26.79296875 5.015625 C-33.80166181 5.70212569 -39.17474778 8.61919394 -43.66015625 14.0390625 C-49.03095307 22.42159834 -49.67818854 31.18191415 -49.734375 40.921875 C-49.7523262 42.08411591 -49.7702774 43.24635681 -49.78877258 44.44381714 C-49.8425433 48.12136306 -49.87666493 51.79878169 -49.91015625 55.4765625 C-49.9433586 57.98439259 -49.97785092 60.49220595 -50.01367188 63 C-50.09825083 69.11709515 -50.16522027 75.23415472 -50.22265625 81.3515625 C-53.85265625 81.3515625 -57.48265625 81.3515625 -61.22265625 81.3515625 C-61.27236512 74.00497404 -61.30852163 66.6584851 -61.33251953 59.31176758 C-61.34253173 56.8163075 -61.35614547 54.32085902 -61.37353516 51.82543945 C-61.3979945 48.2234408 -61.40918753 44.62159826 -61.41796875 41.01953125 C-61.42829132 39.91699509 -61.43861389 38.81445892 -61.44924927 37.67851257 C-61.45111535 24.58091479 -59.66618478 12.81450245 -50.41015625 2.9765625 C-37.9597983 -8.651602 -13.69135916 -10.15422419 0 0 Z " fill="#6E6E6E" transform="translate(630.22265625,53.6484375)"/>
<path d="M0 0 C5.54979907 3.3251629 8.89149651 7.56399695 11.125 13.625 C11.5359231 16.1955523 11.46507406 18.01776555 11.125 20.625 C7.495 20.625 3.865 20.625 0.125 20.625 C-0.2875 19.366875 -0.7 18.10875 -1.125 16.8125 C-2.42784549 13.33414836 -3.49182488 11.42231178 -6.875 9.625 C-10.40388419 8.44870527 -13.63831977 8.40318163 -17.3125 8.375 C-18.63121094 8.34921875 -19.94992187 8.3234375 -21.30859375 8.296875 C-25.02205687 8.63852988 -26.18104857 9.20490179 -28.875 11.625 C-29.535 11.625 -30.195 11.625 -30.875 11.625 C-31.75827729 14.6776063 -32.0383007 17.45005177 -32.0625 20.625 C-32.08376953 21.8934375 -32.08376953 21.8934375 -32.10546875 23.1875 C-31.85568186 25.82931383 -31.32450736 27.41129659 -29.875 29.625 C-27.20999305 30.79330035 -27.20999305 30.79330035 -23.875 31.625 C-22.58095925 32.0554272 -21.28951245 32.49369074 -20 32.9375 C-17.02595765 33.94736158 -14.04227376 34.86871817 -11.01953125 35.71875 C-0.635409 38.69016159 7.62519636 41.72535345 13.125 51.625 C15.16887399 57.75662197 15.19378036 65.15895527 13.2890625 71.3359375 C10.032186 77.74039933 5.05282034 81.91392856 -1.484375 84.76171875 C-6.08729132 85.93365943 -10.45543813 85.99330211 -15.1875 86 C-16.08662109 86.02449219 -16.98574219 86.04898438 -17.91210938 86.07421875 C-27.18878206 86.11446462 -34.34712838 82.97323764 -41.14453125 76.69140625 C-45.07205991 72.00142282 -46.875 66.67987227 -46.875 60.625 C-42.915 60.625 -38.955 60.625 -34.875 60.625 C-34.648125 61.8625 -34.42125 63.1 -34.1875 64.375 C-33.13924409 68.58289252 -31.62431285 70.3039968 -27.875 72.625 C-27.31039063 72.98078125 -26.74578125 73.3365625 -26.1640625 73.703125 C-20.42529403 76.01430138 -12.14795337 75.51543584 -6.21875 73.90234375 C-3.22049869 72.5206869 -1.06125866 70.83454099 1.125 68.375 C2.84302771 63.65042379 2.90951683 59.54270781 1 54.875 C-3.98074032 48.89811161 -10.53334707 47.24072556 -17.75 45.125 C-36.98538551 39.44004801 -36.98538551 39.44004801 -42.875 30.625 C-45.60533341 25.04022711 -45.98347729 18.38187512 -44.22265625 12.4140625 C-41.1427652 5.51404908 -35.85216302 1.07995827 -28.90698242 -1.76196289 C-20.11848555 -4.41340055 -8.30259012 -3.6773078 0 0 Z " fill="#717171" transform="translate(454.875,50.375)"/>
<path d="M0 0 C0.66 0 1.32 0 2 0 C1.88701093 6.32738784 0.52685789 9.35043549 -3.8203125 13.9140625 C-7.08828291 17.04147504 -10.44278766 20.05999239 -13.86328125 23.01953125 C-16.17138424 25.00448422 -16.17138424 25.00448422 -18 28 C-18.03818063 32.58663441 -15.58776522 34.9094145 -12.5677948 38.01364136 C-11.9511647 38.62531158 -11.33453461 39.23698181 -10.69921875 39.8671875 C-10.06643509 40.50616974 -9.43365143 41.14515198 -8.7816925 41.80349731 C-7.44419043 43.14809093 -6.10154273 44.48758301 -4.75415039 45.82226562 C-2.68945874 47.87305445 -0.64993101 49.94675055 1.38867188 52.0234375 C2.69125664 53.32697308 3.99524645 54.62910649 5.30078125 55.9296875 C5.91133865 56.55350311 6.52189606 57.17731873 7.1509552 57.82003784 C9.0529293 59.73869858 9.0529293 59.73869858 12 62 C15.47009121 61.57853715 16.80709789 60.4646398 18.9375 57.75 C19.45441406 57.11707031 19.97132813 56.48414063 20.50390625 55.83203125 C20.99761719 55.22746094 21.49132812 54.62289062 22 54 C32.00818777 43.20169214 32.00818777 43.20169214 38.875 42 C39.90625 42 40.9375 42 42 42 C42.66 42.66 43.32 43.32 44 44 C43.40832031 44.30292969 42.81664062 44.60585937 42.20703125 44.91796875 C41.02173828 45.54638672 41.02173828 45.54638672 39.8125 46.1875 C38.64654297 46.79658203 38.64654297 46.79658203 37.45703125 47.41796875 C34.539805 49.29630998 32.40435615 51.50049429 30 54 C29.03320312 54.8971875 28.06640625 55.794375 27.0703125 56.71875 C26.08846906 57.64575644 25.10669862 58.5728402 24.125 59.5 C23.61453125 59.96019531 23.1040625 60.42039063 22.578125 60.89453125 C20.92328814 62.41732055 20.92328814 62.41732055 19 65 C19.04362117 69.93646252 21.90436073 72.36262386 25 76 C25.8125 78.375 25.8125 78.375 26 80 C24.515 80.495 24.515 80.495 23 81 C18 76 18 76 16.4375 74.125 C15.06145225 72.77779403 15.06145225 72.77779403 13.17578125 73.203125 C10.43636188 74.2064312 8.88249443 75.63825159 6.75 77.625 C3.75898476 80.38403881 0.74151151 83.07124034 -2.375 85.6875 C-6.42904809 89.23378461 -9.00234061 92.61263932 -10 98 C-10.99 97.67 -11.98 97.34 -13 97 C-13.44747112 94.01685922 -13.48117509 91.82036408 -11.92773438 89.171875 C-8.07502074 84.09681447 -3.84871334 79.76598918 0.875 75.5 C1.56335938 74.86835938 2.25171875 74.23671875 2.9609375 73.5859375 C4.63521904 72.05117942 6.31481617 70.5227642 8 69 C7.1454905 64.7085904 4.89526232 62.33842652 1.9375 59.25 C1.15524048 58.42193848 1.15524048 58.42193848 0.35717773 57.57714844 C-1.41897754 55.70870857 -3.20919605 53.85439915 -5 52 C-5.67772461 51.28972656 -6.35544922 50.57945312 -7.05371094 49.84765625 C-9.16917629 47.63598921 -11.30055514 45.44090438 -13.4375 43.25 C-14.11111572 42.54649414 -14.78473145 41.84298828 -15.47875977 41.11816406 C-16.12385498 40.46557617 -16.7689502 39.81298828 -17.43359375 39.140625 C-18.00134521 38.55829102 -18.56909668 37.97595703 -19.15405273 37.37597656 C-21.45687172 35.65944597 -23.14476385 35.20020688 -26 35 C-28.68567934 37.22714872 -30.70072732 39.60784959 -32.8125 42.375 C-35.32503708 45.3900445 -38.11078219 47.81759257 -41.09765625 50.3515625 C-43.00818461 51.93030522 -43.00818461 51.93030522 -44.484375 53.69921875 C-47.26132945 56.08253275 -50.49783103 55.17223782 -54 55 C-51.11935108 52.00519949 -48.08360056 49.43334993 -44.8125 46.875 C-39.37857414 42.45628341 -34.03575627 37.76963675 -30 32 C-30 26.92418072 -31.33899214 26.06046355 -34.75 22.4375 C-35.63171875 21.48746094 -36.5134375 20.53742188 -37.421875 19.55859375 C-39.53021297 17.46622804 -41.56727235 15.68813111 -44 14 C-43.25 12.0625 -43.25 12.0625 -42 10 C-39.921875 9.37109375 -39.921875 9.37109375 -38 9 C-37.63648437 9.58007812 -37.27296875 10.16015625 -36.8984375 10.7578125 C-33.68786082 15.74655472 -30.63591457 20.25181375 -26 24 C-21.93577004 23.76229707 -19.85041529 22.38844964 -16.93359375 19.6484375 C-16.20076172 18.96136719 -15.46792969 18.27429688 -14.71289062 17.56640625 C-13.58657227 16.48166016 -13.58657227 16.48166016 -12.4375 15.375 C-11.30538086 14.32505859 -11.30538086 14.32505859 -10.15039062 13.25390625 C-5.82002563 9.14101333 -2.65135049 5.35896305 0 0 Z " fill="#F3F3F3" transform="translate(119,87)"/>
<path d="M0 0 C3.63 0 7.26 0 11 0 C11 28.38 11 56.76 11 86 C7.37 86 3.74 86 0 86 C0 57.62 0 29.24 0 0 Z " fill="#707070" transform="translate(387,49)"/>
<path d="M0 0 C1.98 0 3.96 0 6 0 C6.01458252 0.9286084 6.02916504 1.8572168 6.04418945 2.81396484 C6.10519172 6.25466496 6.1793305 9.69455652 6.26245117 13.13476562 C6.29573463 14.62456572 6.32375597 16.11449295 6.34643555 17.60449219 C6.37992071 19.74469252 6.43222789 21.88372419 6.48828125 24.0234375 C6.51446533 25.31169434 6.54064941 26.59995117 6.56762695 27.92724609 C6.71031006 28.94125488 6.85299316 29.95526367 7 31 C10.23914229 33.15942819 11.24859733 33.27232978 15 33.25 C16.299375 33.25773437 16.299375 33.25773437 17.625 33.265625 C20.265795 33.15414552 20.265795 33.15414552 23 31 C23.51254128 27.7998894 23.51254128 27.7998894 23.51171875 24.0234375 C23.52966995 23.33819 23.54762115 22.6529425 23.56611633 21.94692993 C23.62033708 19.75634941 23.65415053 17.5659881 23.6875 15.375 C23.72066294 13.89059441 23.75515165 12.40621779 23.79101562 10.921875 C23.87606815 7.28146088 23.94282356 3.64097056 24 0 C25.98 0 27.96 0 30 0 C30.0744013 4.32328804 30.12871968 8.64623255 30.16479492 12.9699707 C30.17984066 14.43943782 30.20028238 15.90886034 30.22631836 17.37817383 C30.26288955 19.4957177 30.27976801 21.61266565 30.29296875 23.73046875 C30.3086792 25.00301514 30.32438965 26.27556152 30.34057617 27.58666992 C29.97443741 31.25619396 29.1968977 33.07840708 27 36 C23.07746446 39.11896055 19.94007588 39.40694015 15 39.375 C13.80375 39.38273437 12.6075 39.39046875 11.375 39.3984375 C7.6887038 38.96324975 5.89086087 38.2986359 3 36 C-0.0991293 31.87855445 -0.3558698 28.82545403 -0.29296875 23.73046875 C-0.28872391 23.04946609 -0.28447906 22.36846344 -0.28010559 21.66682434 C-0.2634061 19.50663541 -0.22577312 17.34740358 -0.1875 15.1875 C-0.17244174 13.71681042 -0.15875534 12.24610611 -0.14648438 10.77539062 C-0.11353214 7.18328643 -0.06181173 3.59173674 0 0 Z " fill="#727272" transform="translate(616,150)"/>
<path d="M0 0 C0.75990234 -0.02900391 1.51980469 -0.05800781 2.30273438 -0.08789062 C6.24795508 -0.13245002 8.22592893 0.028782 11.66796875 2.14453125 C13.6875 4.3125 13.6875 4.3125 14.6875 7.3125 C11.9375 8 11.9375 8 8.6875 8.3125 C8.06488281 7.83039063 7.44226563 7.34828125 6.80078125 6.8515625 C4.20885849 4.9639145 2.79431819 4.93785651 -0.375 5 C-1.23222656 5.00386719 -2.08945312 5.00773438 -2.97265625 5.01171875 C-5.58137304 5.17101846 -5.58137304 5.17101846 -8.3125 7.3125 C-8.89600505 9.76959375 -8.89600505 9.76959375 -8.3125 12.3125 C-5.28705269 15.17421722 -2.46003919 15.92604477 1.5625 16.75 C7.28288985 18.08940836 11.37067182 19.39128187 15.125 24.125 C16.02710093 27.63317029 15.70878136 29.82812829 14.6875 33.3125 C12.83195697 36.30890694 10.91339053 37.89109199 7.6875 39.3125 C0.58648636 40.24603843 -6.29190776 40.73557047 -12.3125 36.3125 C-12.9725 35.6525 -13.6325 34.9925 -14.3125 34.3125 C-14.3125 33.3225 -14.3125 32.3325 -14.3125 31.3125 C-12 30.625 -12 30.625 -9.3125 30.3125 C-8.87421875 30.79589844 -8.4359375 31.27929688 -7.984375 31.77734375 C-5.62886934 33.94022629 -4.01907133 33.6478208 -0.875 33.5625 C0.54619141 33.53929687 0.54619141 33.53929687 1.99609375 33.515625 C4.35867655 33.33731686 6.42099833 32.97691184 8.6875 32.3125 C8.6875 30.3325 8.6875 28.3525 8.6875 26.3125 C4.34047704 24.23961405 0.16850117 22.3056491 -4.5625 21.3125 C-8.46385748 20.272138 -10.44061337 19.09735976 -13.3125 16.3125 C-14.91336627 13.11076746 -14.81167089 9.78672941 -14.3125 6.3125 C-10.35820326 0.11743511 -6.93423846 0.08689522 0 0 Z " fill="#727272" transform="translate(569.3125,149.6875)"/>
<path d="M0 0 C1.98 0 3.96 0 6 0 C6.02505615 0.89831543 6.0501123 1.79663086 6.07592773 2.72216797 C6.17098693 6.05074869 6.27022421 9.37914994 6.37231445 12.70751953 C6.41566231 14.1488762 6.45733752 15.59028418 6.49731445 17.03173828 C6.55502088 19.10204541 6.61871371 21.17209432 6.68359375 23.2421875 C6.72025146 24.4885498 6.75690918 25.73491211 6.79467773 27.01904297 C6.80289479 29.92636942 6.80289479 29.92636942 8 32 C10.71892564 32.90630855 12.61343987 33.22201578 15.4375 33.3125 C16.19933594 33.34988281 16.96117187 33.38726562 17.74609375 33.42578125 C20.95759034 32.81910339 21.98314788 31.54526685 24 29 C24.64071929 25.8169119 24.64071929 25.8169119 24.609375 22.265625 C24.64160156 20.97011719 24.67382812 19.67460937 24.70703125 18.33984375 C24.72177469 16.97656698 24.73609222 15.61328555 24.75 14.25 C24.77816814 12.87105624 24.80809678 11.49214725 24.83984375 10.11328125 C24.91056725 6.74212784 24.96325504 3.3716672 25 0 C26.65 0 28.3 0 30 0 C30.09917794 4.46567763 30.17161225 8.93076507 30.21972656 13.3972168 C30.23979203 14.9152341 30.26705134 16.43317459 30.30175781 17.95092773 C30.35050393 20.13805122 30.37301805 22.32414952 30.390625 24.51171875 C30.41157227 25.82615967 30.43251953 27.14060059 30.45410156 28.49487305 C29.92891752 32.54867266 28.83948733 34.12832495 26 37 C22.55627271 39.45134136 19.20647489 39.2992322 15.0625 39.3125 C13.85722656 39.32925781 12.65195312 39.34601563 11.41015625 39.36328125 C7.65677258 38.96343625 5.89917208 38.39496824 3 36 C0.24345952 31.463989 -0.36056385 28.12398066 -0.29296875 22.8515625 C-0.28872391 22.19417084 -0.28447906 21.53677917 -0.28010559 20.85946655 C-0.26344977 18.78087609 -0.2258262 16.70329226 -0.1875 14.625 C-0.17243605 13.20704536 -0.15875065 11.78907536 -0.14648438 10.37109375 C-0.11359038 6.9137411 -0.06190165 3.45696897 0 0 Z " fill="#767676" transform="translate(309,150)"/>
<path d="M0 0 C12.33579647 -0.3664098 12.33579647 -0.3664098 14.890625 1.04296875 C16.60875503 4.07389532 16.47300026 7.11133901 16.4375 10.5 C16.4674707 11.51513672 16.4674707 11.51513672 16.49804688 12.55078125 C16.49498502 15.65550481 16.3872166 17.53700355 14.36328125 19.95703125 C11.3392508 21.29160337 9.04462364 21.29493338 5.75 21.1875 C2.90375 21.0946875 2.90375 21.0946875 0 21 C0 14.07 0 7.14 0 0 Z " fill="#6E6E6E" transform="translate(422,210)"/>
<path d="M0 0 C9.57 0 19.14 0 29 0 C29 1.65 29 3.3 29 5 C25.04 5 21.08 5 17 5 C17 15.89 17 26.78 17 38 C15.35 38 13.7 38 12 38 C12 27.11 12 16.22 12 5 C8.04 5 4.08 5 0 5 C0 3.35 0 1.7 0 0 Z " fill="#6D6D6D" transform="translate(497,150)"/>
<path d="M0 0 C1.98 0 3.96 0 6 0 C6.04961351 4.18089192 6.08582016 8.36162566 6.10986328 12.54272461 C6.11989146 13.96365343 6.13351741 15.38456178 6.15087891 16.80541992 C6.17526821 18.85340444 6.1865149 20.90111498 6.1953125 22.94921875 C6.20578613 24.17987061 6.21625977 25.41052246 6.22705078 26.6784668 C5.95739464 30.62327522 5.10530932 33.50783242 2.75 36.6875 C-1.10569945 39.57927459 -5.27648842 40.27785362 -10 40 C-10 38.02 -10 36.04 -10 34 C-9.15115234 33.80083984 -9.15115234 33.80083984 -8.28515625 33.59765625 C-7.55167969 33.42105469 -6.81820312 33.24445313 -6.0625 33.0625 C-5.33160156 32.88847656 -4.60070312 32.71445313 -3.84765625 32.53515625 C-2.00030102 32.16112431 -2.00030102 32.16112431 -1 31 C-0.84111908 28.71011219 -0.74861927 26.41556559 -0.68359375 24.12109375 C-0.66281265 23.4344313 -0.64203156 22.74776886 -0.62062073 22.04029846 C-0.55505857 19.83947065 -0.49620985 17.63852025 -0.4375 15.4375 C-0.39432108 13.94855486 -0.350707 12.45962227 -0.30664062 10.97070312 C-0.1993707 7.31393447 -0.09812228 3.65702682 0 0 Z " fill="#7A7A7A" transform="translate(231,150)"/>
<path d="M0 0 C1.65 0 3.3 0 5 0 C5.09900135 4.76881876 5.17152928 9.5370373 5.21972656 14.30664062 C5.23982144 15.92849143 5.26710254 17.55026997 5.30175781 19.171875 C5.3503727 21.5053898 5.37298889 23.83794557 5.390625 26.171875 C5.41127014 26.89493835 5.43191528 27.61800171 5.45318604 28.36297607 C5.45471053 31.79623393 5.27049115 33.64570682 3.15917969 36.41113281 C-0.93843891 39.42643153 -4.97419367 40.29563567 -10 40 C-10 38.02 -10 36.04 -10 34 C-5.545 33.505 -5.545 33.505 -1 33 C-0.67 22.11 -0.34 11.22 0 0 Z " fill="#6D6D6D" transform="translate(422,150)"/>
<path d="M0 0 C1.98 0 3.96 0 6 0 C6 12.87 6 25.74 6 39 C4.02 39 2.04 39 0 39 C0 26.13 0 13.26 0 0 Z " fill="#7A7A7A" transform="translate(461,150)"/>
<path d="M0 0 C1.98 0 3.96 0 6 0 C6 12.87 6 25.74 6 39 C4.02 39 2.04 39 0 39 C0 26.13 0 13.26 0 0 Z " fill="#747474" transform="translate(270,150)"/>
<path d="M0 0 C1.39456452 0.00667256 2.78911118 0.01863093 4.18359375 0.03515625 C4.89451172 0.03966797 5.60542969 0.04417969 6.33789062 0.04882812 C8.09899388 0.06064761 9.86005411 0.07858362 11.62109375 0.09765625 C11.62109375 1.41765625 11.62109375 2.73765625 11.62109375 4.09765625 C7.66109375 4.09765625 3.70109375 4.09765625 -0.37890625 4.09765625 C-0.37890625 5.74765625 -0.37890625 7.39765625 -0.37890625 9.09765625 C2.59109375 9.09765625 5.56109375 9.09765625 8.62109375 9.09765625 C8.62109375 10.41765625 8.62109375 11.73765625 8.62109375 13.09765625 C5.65109375 13.09765625 2.68109375 13.09765625 -0.37890625 13.09765625 C-0.37890625 15.07765625 -0.37890625 17.05765625 -0.37890625 19.09765625 C3.58109375 19.09765625 7.54109375 19.09765625 11.62109375 19.09765625 C11.62109375 20.08765625 11.62109375 21.07765625 11.62109375 22.09765625 C6.34109375 22.09765625 1.06109375 22.09765625 -4.37890625 22.09765625 C-4.40573826 18.6184389 -4.42566295 15.13942586 -4.44140625 11.66015625 C-4.44978516 10.66693359 -4.45816406 9.67371094 -4.46679688 8.65039062 C-4.47001953 7.70615234 -4.47324219 6.76191406 -4.4765625 5.7890625 C-4.48179932 4.91451416 -4.48703613 4.03996582 -4.49243164 3.13891602 C-4.29828606 -0.35194686 -3.60712831 0.10425226 0 0 Z " fill="#A2A2A2" transform="translate(460.37890625,208.90234375)"/>
<path d="M0 0 C1.32 0 2.64 0 4 0 C5.703125 1.75 5.703125 1.75 7.25 4 C8.03117187 5.11375 8.03117187 5.11375 8.828125 6.25 C9.21484375 6.8275 9.6015625 7.405 10 8 C10.78375 7.21625 11.5675 6.4325 12.375 5.625 C13.91666667 4.08333333 15.45833333 2.54166667 17 1 C18.32 1 19.64 1 21 1 C21 7.93 21 14.86 21 22 C20.01 22 19.02 22 18 22 C17.67 17.05 17.34 12.1 17 7 C15.02 9.31 13.04 11.62 11 14 C6.125 9.375 6.125 9.375 5 6 C4.34 6 3.68 6 3 6 C3 11.28 3 16.56 3 22 C2.01 22 1.02 22 0 22 C0 14.74 0 7.48 0 0 Z " fill="#7B7B7B" transform="translate(489,209)"/>
<path d="M0 0 C2.29296875 -0.01953125 2.29296875 -0.01953125 5 1 C6.57623106 3.60547758 7.41054625 6.41625275 8.3125 9.3125 C8.57611328 10.08529297 8.83972656 10.85808594 9.11132812 11.65429688 C10.34495139 15.38080041 11 18.00137632 11 22 C10.01 22 9.02 22 8 22 C7.34 20.68 6.68 19.36 6 18 C3.36 18 0.72 18 -2 18 C-2.33 19.32 -2.66 20.64 -3 22 C-4.32 22 -5.64 22 -7 22 C-6.23754579 17.18399177 -4.58720144 12.75384298 -2.9375 8.1875 C-2.65583984 7.39923828 -2.37417969 6.61097656 -2.08398438 5.79882812 C-1.39241462 3.86477711 -0.69662722 1.93223512 0 0 Z " fill="#878787" transform="translate(394,209)"/>
<path d="M0 0 C0.99 0 1.98 0 3 0 C3.94881594 2.37203986 4.89726558 4.74421585 5.84375 7.1171875 C6.6073908 9.02112977 7.3780988 10.9222545 8.15625 12.8203125 C8.5171875 13.70460937 8.878125 14.58890625 9.25 15.5 C9.75273437 16.72203125 9.75273437 16.72203125 10.265625 17.96875 C11 20 11 20 11 22 C9.68 22 8.36 22 7 22 C6.67 20.35 6.34 18.7 6 17 C3.03 17 0.06 17 -3 17 C-3.33 18.65 -3.66 20.3 -4 22 C-5.32 22 -6.64 22 -8 22 C-2.38297872 2.38297872 -2.38297872 2.38297872 0 0 Z " fill="#767676" transform="translate(329,209)"/>
<path d="M0 0 C1.65 0 3.3 0 5 0 C5.09917794 4.46567763 5.17161225 8.93076507 5.21972656 13.3972168 C5.23979203 14.9152341 5.26705134 16.43317459 5.30175781 17.95092773 C5.35050393 20.13805122 5.37301805 22.32414952 5.390625 24.51171875 C5.41157227 25.82615967 5.43251953 27.14060059 5.45410156 28.49487305 C4.93371011 32.51167954 3.78629985 34.13416045 1 37 C0.01 36.67 -0.98 36.34 -2 36 C-1.76228882 34.48490845 -1.76228882 34.48490845 -1.51977539 32.93920898 C-1.03375317 29.25580436 -0.79905612 25.68394679 -0.68359375 21.97265625 C-0.64169922 20.68681641 -0.59980469 19.40097656 -0.55664062 18.07617188 C-0.516843 16.73828375 -0.47713049 15.40039309 -0.4375 14.0625 C-0.39423346 12.69725438 -0.35061679 11.33201982 -0.30664062 9.96679688 C-0.20098847 6.64462348 -0.09888605 3.32238054 0 0 Z " fill="#6E6E6E" transform="translate(334,150)"/>
<path d="M0 0 C7 0 7 0 10 2 C10.36328125 4.75 10.36328125 4.75 10.3125 8 C10.30863281 9.0725 10.30476563 10.145 10.30078125 11.25 C10 14 10 14 8 16 C5.36 16 2.72 16 0 16 C0 10.72 0 5.44 0 0 Z " fill="#F5F5F5" transform="translate(425,212)"/>
<path d="M0 0 C1.65 0 3.3 0 5 0 C5.04947698 3.93265896 5.08575578 7.86519714 5.10986328 11.7980957 C5.12485495 13.79319618 5.15026731 15.78820946 5.17578125 17.78320312 C5.18222656 19.03681641 5.18867187 20.29042969 5.1953125 21.58203125 C5.20578613 22.73936768 5.21625977 23.8967041 5.22705078 25.08911133 C5 28 5 28 3 31 C2.34 31 1.68 31 1 31 C0.67 31.66 0.34 32.32 0 33 C0 22.11 0 11.22 0 0 Z " fill="#6D6D6D" transform="translate(641,150)"/>
<path d="M0 0 C0.76183594 0.03996094 1.52367187 0.07992187 2.30859375 0.12109375 C3.07300781 0.14300781 3.83742188 0.16492188 4.625 0.1875 C6.74609375 0.55859375 6.74609375 0.55859375 9.74609375 2.55859375 C9.74609375 3.54859375 9.74609375 4.53859375 9.74609375 5.55859375 C6.11609375 4.89859375 2.48609375 4.23859375 -1.25390625 3.55859375 C-1.25390625 8.50859375 -1.25390625 13.45859375 -1.25390625 18.55859375 C1.38609375 18.88859375 4.02609375 19.21859375 6.74609375 19.55859375 C6.74609375 18.89859375 6.74609375 18.23859375 6.74609375 17.55859375 C7.73609375 17.55859375 8.72609375 17.55859375 9.74609375 17.55859375 C8.87109375 21.43359375 8.87109375 21.43359375 7.74609375 22.55859375 C5.6015625 22.796875 5.6015625 22.796875 2.93359375 22.87109375 C1.62455078 22.92716797 1.62455078 22.92716797 0.2890625 22.984375 C-3.14750185 22.40897482 -4.23569562 21.37577564 -6.25390625 18.55859375 C-6.78515625 15.5 -6.78515625 15.5 -6.75390625 12.12109375 C-6.769375 10.45240234 -6.769375 10.45240234 -6.78515625 8.75 C-6.06226525 4.40733864 -4.51410367 1.11874666 0 0 Z " fill="#8D8D8D" transform="translate(361.25390625,208.44140625)"/>
<path d="M0 0 C2.25 0.125 2.25 0.125 5 1 C7.3125 4.0625 7.3125 4.0625 9 7 C11.33524782 4.74259377 13.18705073 2.7194239 15 0 C16.32 0 17.64 0 19 0 C17.76496891 2.80688884 16.44042979 4.66875464 14.4375 7.0625 C11.07259059 11.59523091 11.10902522 16.51900494 11 22 C10.01 22 9.02 22 8 22 C8.00902344 21.31035156 8.01804687 20.62070313 8.02734375 19.91015625 C7.80338564 12.81165803 6.24152838 9.05747524 1.49609375 3.77734375 C0 2 0 2 0 0 Z " fill="#737373" transform="translate(526,209)"/>
<path d="M0 0 C0.33 0 0.66 0 1 0 C1.33 10.23 1.66 20.46 2 31 C2.66 31 3.32 31 4 31 C4.33 30.01 4.66 29.02 5 28 C6 31 6 31 4.875 33.5 C2.77652272 36.29796971 1.17772941 37.56245574 -2 39 C-4.8125 39.1875 -4.8125 39.1875 -7 39 C-7 37.68 -7 36.36 -7 35 C-5.53989502 34.10812988 -5.53989502 34.10812988 -4.05029297 33.19824219 C-0.68466338 31.27988073 -0.68466338 31.27988073 -0.22705078 27.70019531 C-0.21134033 25.78352051 -0.21134033 25.78352051 -0.1953125 23.828125 C-0.18160614 23.1457074 -0.16789978 22.46328979 -0.15377808 21.76019287 C-0.11651021 19.58945595 -0.12018943 17.42101109 -0.125 15.25 C-0.1068704 13.77470388 -0.08606685 12.29943803 -0.0625 10.82421875 C-0.01068456 7.21597971 0.00443324 3.60865802 0 0 Z " fill="#898989" transform="translate(640,150)"/>
<path d="M0 0 C0.66 0 1.32 0 2 0 C2 0.99 2 1.98 2 3 C5.465 2.505 5.465 2.505 9 2 C9 1.34 9 0.68 9 0 C12 1 12 1 13.1875 3.3125 C14 6 14 6 14 10 C13.01 10 12.02 10 11 10 C10.34 8.68 9.68 7.36 9 6 C6.36 6 3.72 6 1 6 C0.67 7.32 0.34 8.64 0 10 C-1.32 10 -2.64 10 -4 10 C-3.43697042 6.05879291 -2.3208055 3.2491277 0 0 Z " fill="#737373" transform="translate(391,221)"/>
<path d="M0 0 C1.99097846 2.98646769 2.94124926 5.59687262 4 9 C2.88625 9.226875 1.7725 9.45375 0.625 9.6875 C-3.16038373 10.60623658 -3.16038373 10.60623658 -4.4375 13.625 C-4.7159375 14.800625 -4.7159375 14.800625 -5 16 C-6.32 16 -7.64 16 -9 16 C-8.54636829 14.41531323 -8.08688548 12.83230076 -7.625 11.25 C-7.36976563 10.36828125 -7.11453125 9.4865625 -6.8515625 8.578125 C-6.0790066 6.23919428 -5.16374324 4.16557438 -4 2 C-3.01 2 -2.02 2 -1 2 C-0.67 1.34 -0.34 0.68 0 0 Z " fill="#7A7A7A" transform="translate(330,215)"/>
<path d="M0 0 C1.32 0 2.64 0 4 0 C4 6.93 4 13.86 4 21 C3.01 21 2.02 21 1 21 C1 15.72 1 10.44 1 5 C0.34 5 -0.32 5 -1 5 C-0.67 3.35 -0.34 1.7 0 0 Z " fill="#6D6D6D" transform="translate(506,210)"/>
<path d="M0 0 C0.7734375 0.00386719 1.546875 0.00773438 2.34375 0.01171875 C4.5 0.3125 4.5 0.3125 7.5 2.3125 C7.5 3.3025 7.5 4.2925 7.5 5.3125 C3.21 4.6525 -1.08 3.9925 -5.5 3.3125 C-5.5 7.9325 -5.5 12.5525 -5.5 17.3125 C-6.16 17.3125 -6.82 17.3125 -7.5 17.3125 C-7.58097324 15.04225032 -7.63917704 12.77117925 -7.6875 10.5 C-7.72230469 9.23542969 -7.75710938 7.97085938 -7.79296875 6.66796875 C-7.5 3.3125 -7.5 3.3125 -6.26953125 1.3828125 C-4.0347119 0.03106746 -2.60124677 -0.05636035 0 0 Z " fill="#6D6D6D" transform="translate(363.5,208.6875)"/>
<path d="M0 0 C0 0.99 0 1.98 0 3 C-7.28571429 6.42857143 -7.28571429 6.42857143 -12 6 C-12 4.02 -12 2.04 -12 0 C-7.6835078 -0.76173392 -4.25566547 -1.16063604 0 0 Z " fill="#777777" transform="translate(424,184)"/>
<path d="M0 0 C0.33 0 0.66 0 1 0 C1 2.31 1 4.62 1 7 C5.29 7 9.58 7 14 7 C14 7.99 14 8.98 14 10 C9.05 10 4.1 10 -1 10 C-1.09765625 3.06640625 -1.09765625 3.06640625 -1 1 C-0.67 0.67 -0.34 0.34 0 0 Z " fill="#6D6D6D" transform="translate(458,221)"/>
<path d="M0 0 C1.65 0.33 3.3 0.66 5 1 C5 1.66 5 2.32 5 3 C3.42945794 4.41696507 1.79253336 5.76106816 0.125 7.0625 C-0.77992187 7.77535156 -1.68484375 8.48820313 -2.6171875 9.22265625 C-5 11 -5 11 -7 12 C-6.67566492 6.64847115 -3.50295176 3.71719957 0 0 Z " fill="#F8F8F8" transform="translate(121,162)"/>
<path d="M0 0 C3.96 0 7.92 0 12 0 C12 1.32 12 2.64 12 4 C9.03 4 6.06 4 3 4 C3 5.98 3 7.96 3 10 C2.67 10 2.34 10 2 10 C1.7834375 8.63875 1.7834375 8.63875 1.5625 7.25 C1.14089532 4.81406186 0.5995854 2.39834161 0 0 Z " fill="#8C8C8C" transform="translate(457,218)"/>
<path d="M0 0 C0.66 0 1.32 0 2 0 C1.45450434 3.73705234 0.12259025 5.03086212 -2.8125 7.3125 C-6.69999483 10.53695711 -8.78834822 13.48454429 -11 18 C-11.12375 17.38125 -11.2475 16.7625 -11.375 16.125 C-11.87197356 13.80879168 -11.87197356 13.80879168 -14 12 C-13.24074219 11.46890625 -12.48148437 10.9378125 -11.69921875 10.390625 C-10.70535156 9.68421875 -9.71148437 8.9778125 -8.6875 8.25 C-7.70136719 7.55390625 -6.71523437 6.8578125 -5.69921875 6.140625 C-3.27778256 4.22029644 -1.80110963 2.46059285 0 0 Z " fill="#E7E7E7" transform="translate(95,152)"/>
<path d="M0 0 C4.95 0 9.9 0 15 0 C15 0.99 15 1.98 15 3 C10.71 3 6.42 3 2 3 C2 3.66 2 4.32 2 5 C1.34 5 0.68 5 0 5 C0 3.35 0 1.7 0 0 Z " fill="#828282" transform="translate(457,209)"/>
<path d="M0 0 C1.32 0 2.64 0 4 0 C4.33 2.31 4.66 4.62 5 7 C3.68 6.67 2.36 6.34 1 6 C0.67 7.65 0.34 9.3 0 11 C-0.66 10.67 -1.32 10.34 -2 10 C-1.54177532 6.53058454 -1.10868317 3.32604951 0 0 Z " fill="#727272" transform="translate(394,209)"/>
<path d="M0 0 C0.66 0 1.32 0 2 0 C3.87588056 2.50117408 5.05167078 4.06992603 4.875 7.25 C4.58625 7.8275 4.2975 8.405 4 9 C3.01 9.33 2.02 9.66 1 10 C1 11.98 1 13.96 1 16 C0.67 16 0.34 16 0 16 C0 10.72 0 5.44 0 0 Z " fill="#DADADA" transform="translate(492,215)"/>
<path d="M0 0 C0.66 0 1.32 0 2 0 C1.67 1.32 1.34 2.64 1 4 C0.67 2.68 0.34 1.36 0 0 Z M-1 4 C-0.34 4 0.32 4 1 4 C3 7 3 7 2.75 9.0625 C2 11 2 11 0 13 C-0.99 13 -1.98 13 -3 13 C-2.125 6.25 -2.125 6.25 -1 4 Z " fill="#6D6D6D" transform="translate(580,174)"/>
<path d="M0 0 C-1.27568089 2.84574968 -2.41496289 5.18089981 -5 7 C-7.5625 6.875 -7.5625 6.875 -10 6 C-10.66 5.01 -11.32 4.02 -12 3 C-11.34 3 -10.68 3 -10 3 C-9.67 2.34 -9.34 1.68 -9 1 C-7.68 1.66 -6.36 2.32 -5 3 C-5 2.34 -5 1.68 -5 1 C-2 0 -2 0 0 0 Z " fill="#777777" transform="translate(102,105)"/>
<path d="M0 0 C0.66 0 1.32 0 2 0 C1.25 7.75 1.25 7.75 -1 10 C-1.99 10 -2.98 10 -4 10 C-5.68798827 11.43750191 -5.68798827 11.43750191 -7 13 C-7.66 12.67 -8.32 12.34 -9 12 C-8.51789063 11.46890625 -8.03578125 10.9378125 -7.5390625 10.390625 C-6.90742187 9.68421875 -6.27578125 8.9778125 -5.625 8.25 C-4.68527344 7.20585938 -4.68527344 7.20585938 -3.7265625 6.140625 C-2.12494817 4.15491312 -1.03479932 2.32045907 0 0 Z " fill="#E9E9E9" transform="translate(119,87)"/>
<path d="M0 0 C0.598125 0.515625 1.19625 1.03125 1.8125 1.5625 C2.534375 2.036875 3.25625 2.51125 4 3 C4.99 2.67 5.98 2.34 7 2 C6.67 3.98 6.34 5.96 6 8 C4.68 7.67 3.36 7.34 2 7 C2 6.34 2 5.68 2 5 C-1.7763932 4.7018576 -1.7763932 4.7018576 -4 6 C-2.25 1.125 -2.25 1.125 0 0 Z " fill="#6A6A6A" transform="translate(455,56)"/>
<path d="M0 0 C1.32 0.66 2.64 1.32 4 2 C3.48050781 2.37511719 2.96101562 2.75023438 2.42578125 3.13671875 C-0.87057246 5.55566962 -4.04682005 7.91093153 -6.875 10.875 C-7.57625 11.57625 -8.2775 12.2775 -9 13 C-9.66 13 -10.32 13 -11 13 C-9.56177525 9.58139248 -7.78464276 7.72092162 -4.9375 5.375 C-2.02124288 3.04514448 -2.02124288 3.04514448 0 0 Z " fill="#EAEAEA" transform="translate(140,107)"/>
<path d="M0 0 C2.10353495 -0.0810206 4.20795952 -0.13919907 6.3125 -0.1875 C7.48425781 -0.22230469 8.65601563 -0.25710937 9.86328125 -0.29296875 C13 0 13 0 14.91796875 1.51171875 C15.27503906 2.00285156 15.63210938 2.49398437 16 3 C15.67 3.66 15.34 4.32 15 5 C14.38125 4.71125 13.7625 4.4225 13.125 4.125 C8.84133876 2.58288195 4.47071788 1.81601453 0 1 C0 0.67 0 0.34 0 0 Z " fill="#737373" transform="translate(422,210)"/>
<path d="M0 0 C3.375 -0.1875 3.375 -0.1875 7 0 C7.66 0.99 8.32 1.98 9 3 C5.62902617 4.49821059 3.79557881 5 0 5 C0 3.35 0 1.7 0 0 Z " fill="#707070" transform="translate(221,184)"/>
<path d="M0 0 C1.485 0.99 1.485 0.99 3 2 C3.29296875 4.3828125 3.29296875 4.3828125 3.1875 7.125 C3.16042969 8.03507813 3.13335938 8.94515625 3.10546875 9.8828125 C3.07066406 10.58148438 3.03585937 11.28015625 3 12 C2.01 12 1.02 12 0 12 C0 8.04 0 4.08 0 0 Z " fill="#6D6D6D" transform="translate(534,219)"/>
<path d="M0 0 C0 0.99 0 1.98 0 3 C-0.99 3.66 -1.98 4.32 -3 5 C-1.125 1.125 -1.125 1.125 0 0 Z M-6 6 C-5.34 6 -4.68 6 -4 6 C-4 6.99 -4 7.98 -4 9 C-6.30636275 11.30636275 -8.26663965 13.17775977 -11 15 C-11 10.68381834 -8.86729652 9.07210341 -6 6 Z " fill="#ECECEC" transform="translate(147,135)"/>
<path d="M0 0 C0.66 0 1.32 0 2 0 C2.66 2.64 3.32 5.28 4 8 C2.35 8 0.7 8 -1 8 C-0.67 5.36 -0.34 2.72 0 0 Z " fill="#EDEDED" transform="translate(395,215)"/>
<path d="M0 0 C0.66 0 1.32 0 2 0 C3.98362069 2.91708924 3.9876191 4.12380904 3.625 7.75 C3.41875 8.8225 3.2125 9.895 3 11 C1.4375 9.875 1.4375 9.875 0 8 C0.3125 4.8125 0.3125 4.8125 1 2 C0.34 1.67 -0.32 1.34 -1 1 C-0.67 0.67 -0.34 0.34 0 0 Z " fill="#7B7B7B" transform="translate(581,172)"/>
<path d="M0 0 C0.99 0 1.98 0 3 0 C2.125 3.875 2.125 3.875 1 5 C-1.33297433 5.04092937 -3.66705225 5.04241723 -6 5 C-5.67 4.34 -5.34 3.68 -5 3 C-2.4375 2.375 -2.4375 2.375 0 2 C0 1.34 0 0.68 0 0 Z " fill="#757575" transform="translate(368,226)"/>
<path d="M0 0 C1.9451 2.91765 2.45276317 4.62537285 3 8 C1.35 8 -0.3 8 -2 8 C-1.125 2.25 -1.125 2.25 0 0 Z " fill="#F6F6F6" transform="translate(330,215)"/>
<path d="M0 0 C1.32 0 2.64 0 4 0 C2.70700306 2.88437779 1.34058637 4.87219421 -1 7 C-1.66 6.01 -2.32 5.02 -3 4 C-1.75 2 -1.75 2 0 0 Z " fill="#868686" transform="translate(541,209)"/>
<path d="M0 0 C0 2.67884659 -0.11409459 4.50335747 -1 7 C-1.99 7.66 -2.98 8.32 -4 9 C-4.66 8.67 -5.32 8.34 -6 8 C-4.55746343 4.63408134 -2.66735273 2.48952921 0 0 Z " fill="#7A7A7A" transform="translate(25,130)"/>
<path d="M0 0 C2.475 0.99 2.475 0.99 5 2 C4.01 2.495 4.01 2.495 3 3 C3 3.66 3 4.32 3 5 C0 7 0 7 -3 7 C-1.125 2.25 -1.125 2.25 0 0 Z " fill="#696969" transform="translate(278,118)"/>
<path d="M0 0 C2.12508244 3.18762365 2.5020163 5.26512223 3 9 C2.01 9 1.02 9 0 9 C-1.125 6.75 -1.125 6.75 -2 4 C-1.125 1.6875 -1.125 1.6875 0 0 Z " fill="#7C7C7C" transform="translate(402,222)"/>
<path d="M0 0 C2.375 0.25 2.375 0.25 5 1 C6.3125 3.0625 6.3125 3.0625 7 5 C6.34 5 5.68 5 5 5 C4.67 5.66 4.34 6.32 4 7 C0 2.25 0 2.25 0 0 Z " fill="#898989" transform="translate(526,209)"/>
<path d="M0 0 C-1.2491742 3.45925163 -2.67527795 6.14693203 -5 9 C-5 7.68 -5 6.36 -5 5 C-5.66 4.34 -6.32 3.68 -7 3 C-2.25 0 -2.25 0 0 0 Z " fill="#EEEEEE" transform="translate(88,161)"/>
<path d="M0 0 C1.4370809 -0.05422947 2.87475462 -0.09289723 4.3125 -0.125 C5.11300781 -0.14820313 5.91351563 -0.17140625 6.73828125 -0.1953125 C9 0 9 0 12 2 C12 2.99 12 3.98 12 5 C10.68 4.67 9.36 4.34 8 4 C8 3.01 8 2.02 8 1 C5.36 1 2.72 1 0 1 C0 0.67 0 0.34 0 0 Z " fill="#878787" transform="translate(359,209)"/>
<path d="M0 0 C1.33804688 0.04060547 1.33804688 0.04060547 2.703125 0.08203125 C3.37859375 0.11683594 4.0540625 0.15164062 4.75 0.1875 C4.75 0.5175 4.75 0.8475 4.75 1.1875 C3.82767578 1.24357422 3.82767578 1.24357422 2.88671875 1.30078125 C1.67435547 1.39939453 1.67435547 1.39939453 0.4375 1.5 C-0.36300781 1.55800781 -1.16351562 1.61601562 -1.98828125 1.67578125 C-5.87447603 2.55504121 -7.10059773 4.9633966 -9.25 8.1875 C-9.5 5.875 -9.5 5.875 -9.25 3.1875 C-6.25377171 0.24675742 -4.12289371 -0.1627458 0 0 Z " fill="#C4C4C4" transform="translate(569.25,153.8125)"/>
<path d="M0 0 C0.66 0.66 1.32 1.32 2 2 C1.0479279 3.00596297 0.08812654 4.00461563 -0.875 5 C-1.40867188 5.556875 -1.94234375 6.11375 -2.4921875 6.6875 C-4 8 -4 8 -6 8 C-5.625 6.0625 -5.625 6.0625 -5 4 C-4.34 3.67 -3.68 3.34 -3 3 C-1.9805881 2.01979625 -0.97753644 1.02196992 0 0 Z " fill="#FBFBFB" transform="translate(143,143)"/>
<path d="M0 0 C1.125 3.75 1.125 3.75 0 6 C-1.65 6 -3.3 6 -5 6 C-3.63016497 2.83884224 -3.0109362 2.0072908 0 0 Z " fill="#787878" transform="translate(317,54)"/>
<path d="M0 0 C0.99 0.66 1.98 1.32 3 2 C2.67 2.99 2.34 3.98 2 5 C1.34 4.67 0.68 4.34 0 4 C-0.66 5.32 -1.32 6.64 -2 8 C-2.6875 6.25 -2.6875 6.25 -3 4 C-1.5625 1.75 -1.5625 1.75 0 0 Z " fill="#777777" transform="translate(483,63)"/>
<path d="M0 0 C0.66 0.33 1.32 0.66 2 1 C2 1.99 2 2.98 2 4 C1.34 4 0.68 4 0 4 C0 4.66 0 5.32 0 6 C-1.65 6 -3.3 6 -5 6 C-3.35 4.02 -1.7 2.04 0 0 Z " fill="#777777" transform="translate(93,157)"/>
<path d="M0 0 C0.66 0.99 1.32 1.98 2 3 C1.34 3 0.68 3 0 3 C0 3.66 0 4.32 0 5 C-2.3125 6.6875 -2.3125 6.6875 -5 8 C-5.99 7.67 -6.98 7.34 -8 7 C-5.36 4.69 -2.72 2.38 0 0 Z " fill="#787878" transform="translate(137,113)"/>
<path d="M0 0 C0.66 0.33 1.32 0.66 2 1 C0.1875 4 0.1875 4 -2 7 C-2.99 7 -3.98 7 -5 7 C-3.70700306 4.11562221 -2.34058637 2.12780579 0 0 Z " fill="#F0F0F0" transform="translate(126,215)"/>
<path d="M0 0 C0.99 0 1.98 0 3 0 C3.33 1.32 3.66 2.64 4 4 C2.68 3.67 1.36 3.34 0 3 C-0.66 4.32 -1.32 5.64 -2 7 C-1.125 1.125 -1.125 1.125 0 0 Z " fill="#737373" transform="translate(329,209)"/>
<path d="M0 0 C0.66 0.33 1.32 0.66 2 1 C2.75 3.4375 2.75 3.4375 3 6 C2.34 6.66 1.68 7.32 1 8 C0.34 8 -0.32 8 -1 8 C-1.04241723 5.66705225 -1.04092937 3.33297433 -1 1 C-0.67 0.67 -0.34 0.34 0 0 Z " fill="#767676" transform="translate(556,70)"/>
<path d="M0 0 C0 3.10551666 -0.5393715 4.35261084 -2 7 C-2.99 6.67 -3.98 6.34 -5 6 C-3.35 4.02 -1.7 2.04 0 0 Z " fill="#F7F7F7" transform="translate(120,221)"/>
<path d="M0 0 C2.64 0 5.28 0 8 0 C8 0.66 8 1.32 8 2 C6.35 2.66 4.7 3.32 3 4 C1.97895449 3.02149805 0.9793879 2.02019573 0 1 C0 0.67 0 0.34 0 0 Z " fill="#747474" transform="translate(73,163)"/>
<path d="M0 0 C1.423125 0.2784375 1.423125 0.2784375 2.875 0.5625 C5.89868793 1.28686632 5.89868793 1.28686632 8 0 C8.33 1.32 8.66 2.64 9 4 C5.7 3.34 2.4 2.68 -1 2 C-0.67 1.34 -0.34 0.68 0 0 Z " fill="#7F7F7F" transform="translate(429,91)"/>
<path d="M0 0 C1.32 0.66 2.64 1.32 4 2 C2.35 3.32 0.7 4.64 -1 6 C-1.33 5.01 -1.66 4.02 -2 3 C-1.34 2.01 -0.68 1.02 0 0 Z " fill="#F8F8F8" transform="translate(483,58)"/>
<path d="M0 0 C2 1 4 2 6 3 C5.34 4.32 4.68 5.64 4 7 C2.35 5.02 0.7 3.04 -1 1 C-0.67 0.67 -0.34 0.34 0 0 Z " fill="#747474" transform="translate(121,137)"/>
<path d="M0 0 C1.5 1.375 1.5 1.375 3 3 C3 3.66 3 4.32 3 5 C2.34 5 1.68 5 1 5 C0.67 5.66 0.34 6.32 0 7 C-0.66 6.67 -1.32 6.34 -2 6 C-1.34 4.02 -0.68 2.04 0 0 Z " fill="#7D7D7D" transform="translate(282,110)"/>
<path d="M0 0 C1.32 0 2.64 0 4 0 C5.4783226 2.95664519 5.06032783 5.74229737 5 9 C4.67 9 4.34 9 4 9 C4 7.02 4 5.04 4 3 C2.68 2.67 1.36 2.34 0 2 C0 1.34 0 0.68 0 0 Z " fill="#898989" transform="translate(145,178)"/>
<path d="M0 0 C2.475 0.495 2.475 0.495 5 1 C4.34 2.32 3.68 3.64 3 5 C2.01 4.67 1.02 4.34 0 4 C0 2.68 0 1.36 0 0 Z " fill="#FAFAFA" transform="translate(127,149)"/>
<path d="M0 0 C1.32 0 2.64 0 4 0 C4.33 0.99 4.66 1.98 5 3 C3.68 3.99 2.36 4.98 1 6 C0.67 4.02 0.34 2.04 0 0 Z " fill="#757575" transform="translate(193,142)"/>
<path d="M0 0 C1.32 0.33 2.64 0.66 4 1 C4 1.99 4 2.98 4 4 C3.01 4.66 2.02 5.32 1 6 C0.4465236 3.92446352 0 2.15634036 0 0 Z " fill="#F6F6F6" transform="translate(25,123)"/>
<path d="M0 0 C1.32 0.33 2.64 0.66 4 1 C4 1.99 4 2.98 4 4 C3.01 4.66 2.02 5.32 1 6 C0.4465236 3.92446352 0 2.15634036 0 0 Z " fill="#F6F6F6" transform="translate(33,115)"/>
<path d="M0 0 C1.32 0.33 2.64 0.66 4 1 C4 1.99 4 2.98 4 4 C3.01 4.66 2.02 5.32 1 6 C0.4465236 3.92446352 0 2.15634036 0 0 Z " fill="#F6F6F6" transform="translate(41,107)"/>
<path d="M0 0 C0.66 0.33 1.32 0.66 2 1 C2.625 3.0625 2.625 3.0625 3 5 C2.01 5.66 1.02 6.32 0 7 C-1.125 2.25 -1.125 2.25 0 0 Z " fill="#757575" transform="translate(105,97)"/>
</svg>
